<svg width="88" height="87" viewBox="0 0 88 87" fill="none" xmlns="http://www.w3.org/2000/svg">
<circle cx="44.1682" cy="43.5" r="43.5" fill="#EDEFF1"/>
<g clip-path="url(#clip0_1303_17017)">
<path d="M43.8621 42.1144C46.7024 42.1144 49.1616 41.0681 51.1715 39.0039C53.1807 36.94 54.1998 34.4147 54.1998 31.4973C54.1998 28.5809 53.1811 26.0552 51.1712 23.9907C49.1612 21.9271 46.7021 20.8809 43.8621 20.8809C41.0214 20.8809 38.5625 21.9271 36.553 23.991C34.5434 26.0549 33.5243 28.5805 33.5243 31.4973C33.5243 34.4147 34.5434 36.9403 36.553 39.0042C38.5632 41.0678 41.0224 42.1144 43.8621 42.1144Z" fill="white"/>
<path d="M61.9505 54.7768C61.8926 53.9179 61.7753 52.9809 61.6028 51.9915C61.4286 50.9947 61.2043 50.0524 60.9357 49.1911C60.6581 48.3009 60.2812 47.4218 59.8145 46.5794C59.3309 45.705 58.7624 44.9436 58.1246 44.3171C57.4575 43.6616 56.6409 43.1346 55.6965 42.7503C54.7554 42.3679 53.7124 42.1742 52.5968 42.1742C52.1587 42.1742 51.735 42.3588 50.9166 42.906C50.413 43.2433 49.8239 43.6334 49.1664 44.0649C48.6042 44.4328 47.8425 44.7775 46.9017 45.0896C45.9839 45.3946 45.052 45.5493 44.1318 45.5493C43.2123 45.5493 42.2804 45.3946 41.3619 45.0896C40.4221 44.7778 39.6601 44.4331 39.0988 44.0652C38.4475 43.6378 37.8581 43.2476 37.347 42.9056C36.5293 42.3585 36.1056 42.1738 35.6675 42.1738C34.5515 42.1738 33.5089 42.3679 32.5681 42.7506C31.6244 43.1343 30.8074 43.6613 30.1397 44.3174C29.5018 44.9443 28.9334 45.7053 28.4501 46.5794C27.9841 47.4218 27.6069 48.3006 27.3292 49.1915C27.061 50.0527 26.8367 50.9947 26.6625 51.9915C26.4896 52.9796 26.3727 53.9169 26.3147 54.7778C26.2578 55.6196 26.2289 56.4956 26.2289 57.3808C26.2289 59.6818 26.9411 61.5445 28.3456 62.9183C29.7327 64.274 31.5677 64.9614 33.8 64.9614H54.4662C56.6978 64.9614 58.5329 64.274 59.9203 62.9183C61.3251 61.5456 62.0373 59.6821 62.0373 57.3804C62.037 56.4923 62.0078 55.6162 61.9505 54.7768Z" fill="white"/>
</g>
<defs>
<clipPath id="clip0_1303_17017">
<rect width="42.92" height="44.08" fill="white" transform="translate(22.7082 20.8809)"/>
</clipPath>
</defs>
</svg>
