<svg width="143" height="35" viewBox="0 0 143 35" fill="none" xmlns="http://www.w3.org/2000/svg">
<path d="M54.3115 14.2102H49.3355V25.4102H54.4555C57.0155 25.4102 58.5995 24.2422 58.5995 22.3222C58.5995 20.8342 57.7035 19.7622 56.2155 19.4902C57.4315 19.1862 58.1675 18.2422 58.1675 17.0102C58.1675 15.2822 56.6955 14.2102 54.3115 14.2102ZM54.1995 18.7862H51.4795V16.0662H54.1995C55.3035 16.0502 55.9755 16.5462 55.9755 17.3942C55.9755 18.2742 55.3035 18.7862 54.1995 18.7862ZM54.1995 23.5542H51.4795V20.5942H54.1995C55.5595 20.5782 56.3755 21.1382 56.3755 22.0502C56.3755 23.0102 55.5595 23.5702 54.1995 23.5542ZM64.1672 16.7862C61.6072 16.7862 59.8152 18.5462 59.8152 21.1542C59.8152 23.7302 61.5592 25.4902 64.2152 25.4902C65.7192 25.4902 66.9672 24.9462 67.8152 24.0182L66.6952 22.8502C66.0872 23.4742 65.2712 23.8102 64.3912 23.8102C63.1432 23.8102 62.2152 23.0742 61.9432 21.8582H68.2632C68.4712 18.7542 67.1752 16.7862 64.1672 16.7862ZM61.8952 20.4662C62.0872 19.2022 62.9512 18.4022 64.1832 18.4022C65.4792 18.4022 66.3272 19.2022 66.3752 20.4662H61.8952ZM76.244 13.5382V18.2582C75.62 17.2982 74.628 16.7702 73.316 16.7702C70.916 16.7702 69.284 18.5142 69.284 21.1062C69.284 23.7142 70.916 25.5062 73.364 25.5062C74.644 25.5062 75.636 24.9782 76.244 24.0342V25.4102H78.324V13.5382H76.244ZM73.812 23.7622C72.372 23.7622 71.396 22.6902 71.38 21.1542C71.396 19.6342 72.388 18.5462 73.812 18.5462C75.252 18.5462 76.244 19.6182 76.244 21.1542C76.244 22.6902 75.252 23.7622 73.812 23.7622ZM90.8427 14.2102H85.8667V25.4102H90.9867C93.5467 25.4102 95.1307 24.2422 95.1307 22.3222C95.1307 20.8342 94.2347 19.7622 92.7467 19.4902C93.9627 19.1862 94.6987 18.2422 94.6987 17.0102C94.6987 15.2822 93.2267 14.2102 90.8427 14.2102ZM90.7307 18.7862H88.0107V16.0662H90.7307C91.8347 16.0502 92.5067 16.5462 92.5067 17.3942C92.5067 18.2742 91.8347 18.7862 90.7307 18.7862ZM90.7307 23.5542H88.0107V20.5942H90.7307C92.0907 20.5782 92.9067 21.1382 92.9067 22.0502C92.9067 23.0102 92.0907 23.5702 90.7307 23.5542ZM102.938 16.8502V21.0742C102.938 22.4502 102.138 23.5062 100.794 23.5222C99.6425 23.5222 98.9545 22.8022 98.9545 21.6022V16.8502H96.8585V22.2102C96.8585 24.2262 98.0425 25.4902 99.9625 25.4902C101.322 25.4902 102.346 24.9622 102.938 23.8262V25.4102H105.034V16.8502H102.938ZM109.71 18.4982V16.8502H107.63V25.4102H109.71V21.2822C109.71 19.7302 110.814 18.6742 112.622 18.7862V16.7702C111.294 16.7862 110.286 17.3782 109.71 18.4982ZM117.652 16.7862C115.092 16.7862 113.3 18.5462 113.3 21.1542C113.3 23.7302 115.044 25.4902 117.7 25.4902C119.204 25.4902 120.452 24.9462 121.3 24.0182L120.18 22.8502C119.572 23.4742 118.756 23.8102 117.876 23.8102C116.628 23.8102 115.7 23.0742 115.428 21.8582H121.748C121.956 18.7542 120.66 16.7862 117.652 16.7862ZM115.38 20.4662C115.572 19.2022 116.436 18.4022 117.668 18.4022C118.964 18.4022 119.812 19.2022 119.86 20.4662H115.38ZM130.656 25.4102L130.64 19.8102C130.624 17.9062 129.36 16.7702 127.12 16.7702C125.552 16.7702 124.592 17.1382 123.36 17.8262L124.112 19.2662C124.992 18.7382 125.856 18.4662 126.656 18.4662C127.936 18.4662 128.592 19.0582 128.592 20.0502V20.2742H126.096C124.016 20.2902 122.848 21.2662 122.848 22.8502C122.848 24.3702 124 25.5062 125.84 25.5062C127.056 25.5062 128.016 25.1222 128.608 24.3702V25.4102H130.656ZM126.336 23.9062C125.392 23.9062 124.816 23.4422 124.816 22.7222C124.816 21.9702 125.328 21.6662 126.432 21.6662H128.592V22.4342C128.48 23.2662 127.536 23.9062 126.336 23.9062ZM138.798 16.8502V21.0742C138.798 22.4502 137.998 23.5062 136.654 23.5222C135.502 23.5222 134.814 22.8022 134.814 21.6022V16.8502H132.718V22.2102C132.718 24.2262 133.902 25.4902 135.822 25.4902C137.182 25.4902 138.206 24.9622 138.798 23.8262V25.4102H140.894V16.8502H138.798Z" fill="#2A2338"/>
<g clip-path="url(#clip0_1303_12954)">
<path fill-rule="evenodd" clip-rule="evenodd" d="M8.69987 16.4171L3.80567 14.8887L3.14307 19.583L9.56953 18.2805C9.80481 17.5389 9.43214 16.7201 8.69987 16.4171Z" fill="#EDF4FF"/>
<path fill-rule="evenodd" clip-rule="evenodd" d="M9.56968 18.2799C9.80496 17.5382 9.43229 16.7195 8.70003 16.4164L6.57861 15.7539C7.31088 16.0569 7.68355 17.5382 7.44827 18.2799H9.56968Z" fill="#DBEAFF"/>
<path fill-rule="evenodd" clip-rule="evenodd" d="M16.5851 18.2812H12.4157H5.32663H3.80566L2.61035 21.4566L3.80566 23.4724L16.5851 22.2772L17.6816 20.1164L16.5851 18.2812Z" fill="#DFD3FA"/>
<path fill-rule="evenodd" clip-rule="evenodd" d="M16.5853 22.2768H3.8058V18.2808V14.8891V11.9584C3.8058 11.1791 3.16956 10.543 2.39022 10.543C1.6128 10.543 0.976562 11.1791 0.976562 11.9584V25.1058H3.32011H16.5853L17.6818 23.6913L16.5853 22.2768Z" fill="#F9F7F8"/>
<path fill-rule="evenodd" clip-rule="evenodd" d="M31.0477 22.2756V15.125H19.1078C17.7205 15.125 16.5854 16.26 16.5854 17.6472V18.2796V22.2756V25.1046H31.0478V22.2756H31.0477Z" fill="#855DDB"/>
<path fill-rule="evenodd" clip-rule="evenodd" d="M33.8768 25.106V15.1264C33.8768 14.3491 33.2387 13.7129 32.4612 13.7129C31.6838 13.7129 31.0475 14.3491 31.0475 15.1264L29.0117 22.277L31.0475 25.106H32.0433H33.8768Z" fill="#F9F7F8"/>
<path fill-rule="evenodd" clip-rule="evenodd" d="M14.0063 18.2812H16.5852V22.2772H14.0063V18.2812Z" fill="#CDBAF8"/>
<path fill-rule="evenodd" clip-rule="evenodd" d="M14.0063 22.2773H16.5852V25.1063H14.0063V22.2773Z" fill="#F0F0F0"/>
<path fill-rule="evenodd" clip-rule="evenodd" d="M31.0479 22.2756V18.2796V15.125H28.71V18.2796V22.2756V25.1046H31.0479V22.2756Z" fill="#A076FB"/>
<path fill-rule="evenodd" clip-rule="evenodd" d="M3.80593 18.2808V14.8891V11.9584C3.80593 11.1791 3.1697 10.543 2.39035 10.543C2.14379 10.543 1.91037 10.607 1.70703 10.7199C2.14186 10.9627 2.43737 11.4276 2.43737 11.9584V14.889V18.2808V22.2768H3.09618H3.80587V19.4478V18.2808H3.80593Z" fill="#F0F0F0"/>
<path fill-rule="evenodd" clip-rule="evenodd" d="M19.0119 12.2722C21.9258 10.725 23.0326 7.10921 21.4853 4.1955C20.6797 2.67653 19.3074 1.64696 17.7676 1.231C16.7643 0.959925 15.6876 0.948636 14.6485 1.231C14.2268 1.34581 13.8109 1.50771 13.4081 1.72227C10.496 3.26947 9.38729 6.88522 10.9346 9.79893C12.482 12.7126 16.098 13.8194 19.0119 12.2722Z" fill="#FAF5DC"/>
<path fill-rule="evenodd" clip-rule="evenodd" d="M19.488 6.52514C19.488 6.16941 19.1962 5.87768 18.8405 5.87768H17.3289V4.36621C17.3289 4.01047 17.0371 3.71875 16.6814 3.71875H15.7383C15.3826 3.71875 15.0926 4.01047 15.0926 4.36621V5.87762H13.5792C13.2234 5.87762 12.9316 6.16934 12.9316 6.52508V7.46805C12.9316 7.82378 13.2234 8.11551 13.5792 8.11551H15.0926V9.62691C15.0926 9.98265 15.3825 10.2744 15.7383 10.2744H16.6814C17.0371 10.2744 17.3289 9.98265 17.3289 9.62691V8.11551H18.8405C19.1962 8.11551 19.488 7.82378 19.488 7.46805V6.52514Z" fill="#F29100"/>
<path fill-rule="evenodd" clip-rule="evenodd" d="M19.0115 12.273C21.9254 10.7258 23.0322 7.11009 21.4849 4.19638C20.6793 2.67741 19.307 1.64784 17.7672 1.23187C16.9898 1.02103 16.1691 0.966449 15.354 1.08505C15.5949 1.11892 15.8321 1.16786 16.0655 1.23187C17.6053 1.64784 18.9757 2.67741 19.7832 4.19638C21.3306 7.11009 20.2237 10.7258 17.3098 12.273C16.683 12.6062 16.026 12.8151 15.3634 12.9111C16.5738 13.0862 17.8482 12.8904 19.0115 12.273Z" fill="#F5EBCD"/>
<path fill-rule="evenodd" clip-rule="evenodd" d="M5.25731 32.0891C5.25731 31.02 4.38951 30.1523 3.3203 30.1523C2.24924 30.1523 1.3833 31.0201 1.3833 32.0891C1.3833 33.1583 2.24917 34.026 3.3203 34.026C4.38958 34.026 5.25731 33.1583 5.25731 32.0891Z" fill="#423361"/>
<path fill-rule="evenodd" clip-rule="evenodd" d="M33.9804 32.0816C33.9747 31.0144 33.1089 30.1523 32.0434 30.1523C30.9723 30.1523 30.1064 31.0201 30.1064 32.0891C30.1064 33.1583 30.9723 34.026 32.0434 34.026C33.1088 34.026 33.9747 33.1639 33.9804 32.0985V32.0891V32.0816Z" fill="#423361"/>
<path fill-rule="evenodd" clip-rule="evenodd" d="M33.9804 32.0816C33.9748 31.0144 33.1089 30.1523 32.0434 30.1523C31.8062 30.1523 31.5784 30.1956 31.3677 30.2728C32.1018 30.5457 32.627 31.2516 32.6307 32.0816V32.0891V32.0986C32.6269 32.9267 32.1018 33.6326 31.3677 33.9055C31.5785 33.9845 31.8063 34.026 32.0434 34.026C33.1088 34.026 33.9747 33.1639 33.9804 32.0985V32.0891V32.0816Z" fill="#513E79"/>
<path fill-rule="evenodd" clip-rule="evenodd" d="M3.32028 34.026C4.38949 34.026 5.25728 33.1582 5.25728 32.0891C5.25728 31.02 4.38949 30.1523 3.32028 30.1523C3.08308 30.1523 2.8553 30.1956 2.64453 30.2728C3.38244 30.5476 3.90758 31.2572 3.90758 32.0891C3.90758 32.9211 3.38237 33.6326 2.64453 33.9055C2.8553 33.9846 3.08308 34.026 3.32028 34.026Z" fill="#513E79"/>
<path fill-rule="evenodd" clip-rule="evenodd" d="M33.8769 25.106V15.1264C33.8769 14.3491 33.2388 13.7129 32.4614 13.7129C32.1903 13.7129 31.9361 13.7901 31.7197 13.9237C32.1244 14.1741 32.3936 14.6201 32.3936 15.1265V25.1061H33.8769V25.106Z" fill="#F0F0F0"/>
<path d="M14.3148 13.1849C14.9409 13.3765 15.5808 13.4715 16.2175 13.4715C17.2618 13.4715 18.297 13.216 19.2454 12.7123C22.3967 11.039 23.5988 7.11376 21.9251 3.96219C21.1144 2.43558 19.7577 1.31617 18.1049 0.81015C16.4522 0.304002 14.7013 0.471943 13.1743 1.2827L13.1743 1.28276C10.0235 2.9568 8.82139 6.88201 10.4946 10.0328C11.3054 11.5595 12.6621 12.6788 14.3148 13.1849ZM13.6417 2.16238L13.6416 2.16245C14.9335 1.47647 16.4151 1.33463 17.8133 1.76262C19.2116 2.19067 20.3595 3.13776 21.0454 4.42942C22.4615 7.09597 21.4444 10.417 18.7783 11.8327C17.4863 12.5187 16.005 12.6607 14.6066 12.2326C13.2083 11.8044 12.0604 10.8573 11.3744 9.56568C9.95873 6.89987 10.9758 3.57876 13.6417 2.16238Z" fill="black"/>
<path d="M13.5792 8.61362H14.5946V9.62698C14.5946 10.2586 15.1076 10.7725 15.7383 10.7725H16.6814C17.3131 10.7725 17.827 10.2586 17.827 9.62698V8.61362H18.8405C19.4722 8.61362 19.9861 8.09977 19.9861 7.46811V6.52508C19.9861 5.89342 19.4722 5.37957 18.8405 5.37957H17.827V4.36621C17.827 3.73455 17.3131 3.2207 16.6814 3.2207H15.7383C15.1076 3.2207 14.5946 3.73455 14.5946 4.36621V5.37957H13.5792C12.9476 5.37957 12.4336 5.89342 12.4336 6.52508V7.46811C12.4336 8.09977 12.9476 8.61362 13.5792 8.61362ZM13.4298 6.52508C13.4298 6.44406 13.4982 6.3756 13.5792 6.3756H15.0927C15.3678 6.3756 15.5907 6.15267 15.5907 5.87755V4.36614C15.5907 4.28513 15.6583 4.21666 15.7383 4.21666H16.6814C16.7624 4.21666 16.8309 4.28513 16.8309 4.36614V5.87755C16.8309 6.15261 17.0539 6.3756 17.3289 6.3756H18.8405C18.9215 6.3756 18.9899 6.44406 18.9899 6.52508V7.46811C18.9899 7.54913 18.9215 7.61759 18.8405 7.61759H17.3289C17.0539 7.61759 16.8309 7.84052 16.8309 8.11564V9.62705C16.8309 9.70806 16.7624 9.77653 16.6814 9.77653H15.7383C15.6583 9.77653 15.5907 9.70806 15.5907 9.62705V8.11564C15.5907 7.84059 15.3678 7.61759 15.0927 7.61759H13.5792C13.4982 7.61759 13.4298 7.54913 13.4298 7.46811V6.52508Z" fill="black"/>
<path d="M32.5415 29.7054V25.6037H33.8769C34.152 25.6037 34.375 25.3808 34.375 25.1057V15.1261C34.375 14.0721 33.5165 13.2146 32.4614 13.2146C31.5795 13.2146 30.8356 13.8149 30.6159 14.6281H26.1271C25.852 14.6281 25.6291 14.851 25.6291 15.1261C25.6291 15.4012 25.8521 15.6242 26.1271 15.6242H30.5496V24.6077H17.0834V22.2768V17.6484C17.0834 16.5323 17.9915 15.6242 19.1077 15.6242H23.8268C24.1019 15.6242 24.3249 15.4013 24.3249 15.1262C24.3249 14.8511 24.1019 14.6281 23.8268 14.6281H19.1077C17.4423 14.6281 16.0872 15.983 16.0872 17.6484V17.7828H10.1365C10.1174 17.0034 9.64344 16.2688 8.89046 15.9573C8.87671 15.9516 8.8627 15.9465 8.84849 15.9421L4.30391 14.5228V11.9584C4.30391 10.9033 3.44541 10.0449 2.39029 10.0449C1.33609 10.0449 0.478516 10.9032 0.478516 11.9583V16.6187C0.478516 16.8938 0.701508 17.1168 0.976562 17.1168C1.25162 17.1168 1.47461 16.8939 1.47461 16.6187V11.9583C1.47461 11.4524 1.88533 11.0409 2.39022 11.0409C2.8961 11.0409 3.30769 11.4524 3.30769 11.9583V22.2767C3.30769 22.5517 3.53068 22.7747 3.80573 22.7747H16.0871V24.6076H1.47468V18.9188C1.47468 18.6437 1.25168 18.4207 0.976629 18.4207C0.701574 18.4207 0.478582 18.6437 0.478582 18.9188V25.1057C0.478582 25.3807 0.701574 25.6037 0.976629 25.6037H2.82212V29.7054C1.71752 29.9358 0.885188 30.9169 0.885188 32.0889C0.885188 33.4314 1.97757 34.5237 3.32024 34.5237C4.66291 34.5237 5.75529 33.4314 5.75529 32.0889C5.75529 30.9169 4.92289 29.9359 3.81835 29.7054V28.1259H31.5454V29.7054C30.4407 29.9358 29.6083 30.9169 29.6083 32.0889C29.6083 33.4314 30.7007 34.5237 32.0434 34.5237C33.3861 34.5237 34.4785 33.4313 34.4785 32.0888C34.4785 30.9169 33.6461 29.9358 32.5415 29.7054ZM32.4613 14.2106C32.9672 14.2106 33.3788 14.6212 33.3788 15.1261V24.6077H31.5457V15.1261C31.5457 14.6212 31.9565 14.2106 32.4613 14.2106ZM8.52802 16.8854C8.89279 17.0449 9.12408 17.4018 9.14081 17.7827H4.30391V15.5662L8.52802 16.8854ZM4.30391 21.7787V18.7787H9.56966H16.0872V21.7787H4.30391ZM4.75906 32.0888C4.75906 32.8822 4.11359 33.5276 3.32017 33.5276C2.52675 33.5276 1.88128 32.8822 1.88128 32.0888C1.88128 31.2954 2.52675 30.65 3.32017 30.65C4.11359 30.65 4.75906 31.2955 4.75906 32.0888ZM3.81822 27.1299V25.6038H16.5853H31.5454V27.1299H3.81822ZM32.0435 33.5276C31.25 33.5276 30.6046 32.8822 30.6046 32.0889C30.6046 31.2955 31.25 30.65 32.0435 30.65C32.8369 30.65 33.4824 31.2955 33.4824 32.0889C33.4824 32.8822 32.8369 33.5276 32.0435 33.5276Z" fill="black"/>
</g>
<defs>
<clipPath id="clip0_1303_12954">
<rect width="34" height="34" fill="white" transform="translate(0.478516 0.523438)"/>
</clipPath>
</defs>
</svg>
