<svg width="492" height="236" viewBox="0 0 492 236" fill="none" xmlns="http://www.w3.org/2000/svg">
<g clip-path="url(#clip0_1303_12671)">
<path d="M155.046 0.923157C155.046 0.923157 198.43 -3.03873 235.843 25.1509C276.332 55.6572 325.484 -5.30818 354.142 5.9122C374.545 13.8994 383.052 34.7808 392.922 44.5786C415.553 67.0429 433.827 45.5311 462.631 62.5041C491.436 79.477 458.301 234.535 446.573 234.513L17.434 234.524C17.434 234.524 -14.347 191.968 15.1429 165.344C44.6328 138.719 24.3852 126.545 20.8011 116.254C16.6864 104.44 8.65282 82.0785 43.4017 54.2209C63.9865 37.7192 72.2457 41.3031 71.0097 34.5122C71.0097 34.5122 96.2398 -1.19831 155.046 0.924401V0.923157Z" fill="#F3EEFF"/>
<path d="M289.236 70.9492H284.076V75.1511H279.887V80.3267H284.076V84.5286H289.236V80.3267H293.425V75.1511H289.236V70.9492ZM292.732 75.845V79.6315H288.543V83.8334H284.768V79.6315H280.579V75.845H284.768V71.6431H288.543V75.845H292.732Z" fill="#E2DCFF"/>
<path d="M119.107 11.1621H112.52V16.5255H107.173V23.1323H112.52V28.4957H119.107V23.1323H124.454V16.5255H119.107V11.1621ZM123.57 17.4121V22.2457H118.221V27.6091H113.403V22.2457H108.056V17.4121H113.403V12.0487H118.221V17.4121H123.57Z" fill="#E2DCFF"/>
<path d="M217.934 16.2402H215.206V18.4624H212.99V21.1994H215.206V23.4216H217.934V21.1994H220.15V18.4624H217.934V16.2402ZM219.784 18.8293V20.8314H217.569V23.0535H215.573V20.8314H213.357V18.8293H215.573V16.6071H217.569V18.8293H219.784Z" fill="#E2DCFF"/>
<path d="M55.1465 135.387H51.8649V138.059H49.2007V141.351H51.8649V144.023H55.1465V141.351H57.8107V138.059H55.1465V135.387ZM57.3706 138.501V140.908H54.7064V143.58H52.3063V140.908H49.642V138.501H52.3063V135.828H54.7064V138.501H57.3706Z" fill="#E2DCFF"/>
<path d="M25.9927 71.9043H22.7111V74.5766H20.0469V77.8683H22.7111V80.5406H25.9927V77.8683H28.6569V74.5766H25.9927V71.9043ZM28.2168 75.0181V77.4256H25.5526V80.0979H23.1524V77.4256H20.4882V75.0181H23.1524V72.3457H25.5526V75.0181H28.2168Z" fill="#E2DCFF"/>
<path d="M309.933 43.9707H307.986V45.555H306.407V47.5073H307.986V49.0916H309.933V47.5073H311.512V45.555H309.933V43.9707ZM311.25 45.8173V47.2449H309.671V48.8292H308.248V47.2449H306.668V45.8173H308.248V44.2331H309.671V45.8173H311.25Z" fill="#E2DCFF"/>
<path d="M174.772 31.0645C172.408 31.0645 170.485 32.9932 170.485 35.3646C170.485 37.736 172.408 39.6647 174.772 39.6647C177.137 39.6647 179.059 37.736 179.059 35.3646C179.059 32.9932 177.137 31.0645 174.772 31.0645ZM174.772 38.5741C173.008 38.5741 171.573 37.1341 171.573 35.3646C171.573 33.595 173.008 32.155 174.772 32.155C176.537 32.155 177.972 33.595 177.972 35.3646C177.972 37.1341 176.537 38.5741 174.772 38.5741Z" fill="#E2DCFF"/>
<path d="M353.08 17.082C351.781 17.082 350.724 18.1428 350.724 19.446C350.724 20.7492 351.781 21.8099 353.08 21.8099C354.38 21.8099 355.437 20.7492 355.437 19.446C355.437 18.1428 354.38 17.082 353.08 17.082ZM353.08 21.2106C352.111 21.2106 351.321 20.4197 351.321 19.446C351.321 18.4723 352.11 17.6814 353.08 17.6814C354.051 17.6814 354.84 18.4723 354.84 19.446C354.84 20.4197 354.051 21.2106 353.08 21.2106Z" fill="#E2DCFF"/>
<path d="M53.514 51.9935C54.8132 51.9935 55.8707 50.9328 55.8707 49.6296C55.8707 48.3264 54.8132 47.2656 53.514 47.2656C52.2147 47.2656 51.1572 48.3264 51.1572 49.6296C51.1572 50.9328 52.2147 51.9935 53.514 51.9935ZM53.514 47.865C54.4835 47.865 55.2732 48.6559 55.2732 49.6296C55.2732 50.6033 54.4847 51.3941 53.514 51.3941C52.5433 51.3941 51.7548 50.6033 51.7548 49.6296C51.7548 48.6559 52.5433 47.865 53.514 47.865Z" fill="#E2DCFF"/>
<path d="M384.894 105.426H382.722V107.195H380.958V109.374H382.722V111.144H384.894V109.374H386.658V107.195H384.894V105.426ZM386.367 107.488V109.082H384.602V110.851H383.013V109.082H381.249V107.488H383.013V105.718H384.602V107.488H386.367Z" fill="#E2DCFF"/>
<path d="M457.619 134.023H454.368V136.671H451.729V139.931H454.368V142.579H457.619V139.931H460.258V136.671H457.619V134.023ZM459.822 137.107V139.492H457.182V142.14H454.804V139.492H452.165V137.107H454.804V134.46H457.182V137.107H459.822Z" fill="#E2DCFF"/>
<path d="M410.1 54.543H404.941V58.7449H400.751V63.9204H404.941V68.1223H410.1V63.9204H414.29V58.7449H410.1V54.543ZM413.596 59.4387V63.2253H409.407V67.4272H405.632V63.2253H401.443V59.4387H405.632V55.2369H409.407V59.4387H413.596Z" fill="#E2DCFF"/>
<path d="M467.184 66.4727C465.443 66.4727 464.026 67.8928 464.026 69.6399C464.026 71.3871 465.442 72.8072 467.184 72.8072C468.925 72.8072 470.341 71.3858 470.341 69.6399C470.341 67.894 468.925 66.4727 467.184 66.4727ZM467.184 72.0039C465.884 72.0039 464.827 70.9431 464.827 69.6399C464.827 68.3367 465.884 67.276 467.184 67.276C468.483 67.276 469.54 68.3367 469.54 69.6399C469.54 70.9431 468.483 72.0039 467.184 72.0039Z" fill="#E2DCFF"/>
<path d="M439.466 89.6797C437.98 89.6797 436.771 90.8921 436.771 92.3831C436.771 93.8741 437.98 95.0866 439.466 95.0866C440.953 95.0866 442.161 93.8741 442.161 92.3831C442.161 90.8921 440.953 89.6797 439.466 89.6797ZM439.466 94.4001C438.357 94.4001 437.454 93.4948 437.454 92.3831C437.454 91.2714 438.357 90.3661 439.466 90.3661C440.576 90.3661 441.478 91.2714 441.478 92.3831C441.478 93.4948 440.576 94.4001 439.466 94.4001Z" fill="#E2DCFF"/>
<path d="M299.677 14.8613C298.191 14.8613 296.982 16.0738 296.982 17.5648C296.982 19.0558 298.191 20.2682 299.677 20.2682C301.164 20.2682 302.372 19.0558 302.372 17.5648C302.372 16.0738 301.164 14.8613 299.677 14.8613ZM299.677 19.5818C298.568 19.5818 297.666 18.6765 297.666 17.5648C297.666 16.453 298.569 15.5465 299.677 15.5465C300.785 15.5465 301.689 16.4518 301.689 17.5648C301.689 18.6777 300.787 19.5818 299.677 19.5818Z" fill="#E2DCFF"/>
<path d="M37.9799 105.582C36.4934 105.582 35.2847 106.794 35.2847 108.285C35.2847 109.776 36.4934 110.989 37.9799 110.989C39.4663 110.989 40.6751 109.776 40.6751 108.285C40.6751 106.794 39.4663 105.582 37.9799 105.582ZM37.9799 110.302C36.8703 110.302 35.969 109.397 35.969 108.285C35.969 107.174 36.8715 106.267 37.9799 106.267C39.0882 106.267 39.992 107.173 39.992 108.285C39.992 109.398 39.0895 110.302 37.9799 110.302Z" fill="#E2DCFF"/>
<path d="M264.549 42.3789C263.439 42.3789 262.538 43.2842 262.538 44.3972C262.538 45.5101 263.441 46.4154 264.549 46.4154C265.657 46.4154 266.561 45.5101 266.561 44.3972C266.561 43.2842 265.659 42.3789 264.549 42.3789ZM264.549 45.9031C263.721 45.9031 263.048 45.2278 263.048 44.3972C263.048 43.5665 263.721 42.8912 264.549 42.8912C265.377 42.8912 266.05 43.5665 266.05 44.3972C266.05 45.2278 265.377 45.9031 264.549 45.9031Z" fill="#E2DCFF"/>
<path d="M226.814 53.0352C225.648 53.0352 224.698 53.9877 224.698 55.1579C224.698 56.328 225.648 57.2806 226.814 57.2806C227.981 57.2806 228.931 56.328 228.931 55.1579C228.931 53.9877 227.981 53.0352 226.814 53.0352ZM226.814 56.7421C225.943 56.7421 225.235 56.0308 225.235 55.1579C225.235 54.2849 225.944 53.5736 226.814 53.5736C227.685 53.5736 228.394 54.2849 228.394 55.1579C228.394 56.0308 227.685 56.7421 226.814 56.7421Z" fill="#E2DCFF"/>
<path d="M491.924 232.709H0.923828V235.128H491.924V232.709Z" fill="#353042"/>
<path d="M39.6969 204.293H100.331L100.331 131.504H39.6969L39.6969 204.293Z" fill="#855DDB"/>
<path d="M91.0482 210.447H95.9985V204.293H91.0482V210.447Z" fill="#353042"/>
<path d="M44.6444 210.447H49.5947V204.293H44.6444V210.447Z" fill="#353042"/>
<path d="M42.3399 156.045H97.686V134.521H42.3399V156.045Z" fill="white"/>
<path d="M64.7544 146.873H75.8911V144.804H64.7544V146.873Z" fill="#855DDB"/>
<path d="M42.3399 178.727H97.686V157.953H42.3399V178.727Z" fill="white"/>
<path d="M64.7544 169.836H75.8911V167.767H64.7544V169.836Z" fill="#855DDB"/>
<path d="M42.3399 201.781H97.686V180.633H42.3399V201.781Z" fill="white"/>
<path d="M64.7544 192.797H75.8911V190.728H64.7544V192.797Z" fill="#855DDB"/>
<path d="M298.56 210.549C298.56 211.304 298.382 212.016 298.067 212.648C297.84 213.104 297.541 213.517 297.187 213.875C296.339 214.727 295.166 215.253 293.87 215.253H253.545C251.707 215.253 250.117 214.194 249.347 212.649C249.032 212.017 248.856 211.305 248.856 210.55C248.856 209.25 249.381 208.075 250.23 207.224C251.079 206.372 252.251 205.846 253.546 205.846H293.872C296.462 205.846 298.56 207.951 298.56 210.549Z" fill="#855DDB"/>
<path d="M294.422 215.172H252.676V217.433H294.422V215.172Z" fill="#353042"/>
<path d="M254.473 217.432H252.676V228.592H254.473V217.432Z" fill="#353042"/>
<path d="M294.422 217.432H292.626V228.592H294.422V217.432Z" fill="#353042"/>
<path opacity="0.2" d="M298.067 212.648C297.84 213.105 297.541 213.518 297.187 213.876C296.339 214.728 295.166 215.254 293.87 215.254H253.545C251.706 215.254 250.117 214.194 249.347 212.65H298.066L298.067 212.648Z" fill="#575756"/>
<path d="M156.551 214.801C157.348 211.413 155.256 208.017 151.877 207.217C148.499 206.417 145.113 208.516 144.316 211.905C143.519 215.294 145.611 218.689 148.99 219.489C152.368 220.289 155.753 218.19 156.551 214.801Z" fill="#353042"/>
<path d="M150.439 216.922C152.397 216.922 153.984 215.329 153.984 213.365C153.984 211.401 152.397 209.809 150.439 209.809C148.481 209.809 146.893 211.401 146.893 213.365C146.893 215.329 148.481 216.922 150.439 216.922Z" fill="white"/>
<path d="M320.001 214.801C320.799 211.413 318.706 208.017 315.328 207.217C311.949 206.417 308.564 208.516 307.767 211.905C306.969 215.294 309.062 218.689 312.44 219.489C315.819 220.289 319.204 218.19 320.001 214.801Z" fill="#353042"/>
<path d="M313.896 216.922C315.854 216.922 317.441 215.329 317.441 213.365C317.441 211.401 315.854 209.809 313.896 209.809C311.938 209.809 310.35 211.401 310.35 213.365C310.35 215.329 311.938 216.922 313.896 216.922Z" fill="white"/>
<path d="M323.097 179.838H145.276C144.038 179.838 143.035 178.831 143.035 177.59C143.035 176.348 144.039 175.342 145.276 175.342H323.098C324.337 175.342 325.34 176.349 325.34 177.59C325.34 178.832 324.336 179.838 323.098 179.838H323.097Z" fill="#353042"/>
<path d="M150.072 177.195H148.292V157.148L150.072 158.279V177.195Z" fill="#353042"/>
<path d="M148.292 179.838H152.586V213.11C152.586 214.299 151.624 215.264 150.439 215.264C149.254 215.264 148.292 214.299 148.292 213.11V179.838Z" fill="#353042"/>
<path d="M311.935 179.838H315.857V213.296C315.857 214.382 314.978 215.264 313.896 215.264C312.814 215.264 311.935 214.382 311.935 213.296V179.838Z" fill="#353042"/>
<path d="M314.449 198.494H151.329V201.52H314.449V198.494Z" fill="#353042"/>
<path d="M318.656 161.112H180.552L149.883 143.84C146.299 141.765 141.716 142.996 139.645 146.592C137.576 150.187 138.804 154.785 142.389 156.861L174.081 175.215H318.656C323.339 175.215 327.04 172.087 327.04 167.39C327.04 162.693 323.339 161.114 318.656 161.114V161.112Z" fill="#855DDB"/>
<path d="M319.725 171.111H173.348L141.262 152.758C140.16 152.127 139.278 151.263 138.643 150.266C138.616 152.891 139.961 155.454 142.39 156.86L174.082 175.213H318.657C323.274 175.213 326.935 171.995 327.041 167.389C325.549 169.905 322.884 171.112 319.726 171.112L319.725 171.111Z" fill="#6B4AC6"/>
<path d="M194.887 175.317C194.887 162.574 203.386 152.244 213.87 152.244H239.208C249.693 152.244 258.191 162.574 258.191 175.317" stroke="#575756" stroke-miterlimit="10"/>
<path d="M260.124 175.025H256.26C256.26 163.372 248.611 153.89 239.21 153.89H213.872C204.469 153.89 196.821 163.37 196.821 175.025H192.957C192.957 168.413 195.088 162.18 198.959 157.476C202.918 152.664 208.215 150.014 213.872 150.014H239.21C244.868 150.014 250.164 152.664 254.123 157.476C257.993 162.18 260.124 168.413 260.124 175.025Z" fill="#353042"/>
<path d="M256.706 163.875H197.205V166.445H256.706V163.875Z" fill="#353042"/>
<path d="M259.527 74.0547H222.535V97.9355H259.527V74.0547Z" fill="#F29100"/>
<path d="M260.529 71.252H221.302V74.0561H260.529V71.252Z" fill="#F8B133"/>
<path d="M246.925 83.9365H242.619V79.7109H239.087V83.9365H234.782V87.6658H239.087V91.8913H242.619V87.6658H246.925V83.9365Z" fill="white"/>
<path opacity="0.15" d="M166.619 98.8984V102.138H173.924V107.025H178.797V102.138H255.593V107.025H260.465V102.138H265.647V98.8984H166.619Z" fill="#575756"/>
<path d="M264.76 98.0078H165.731V101.247H264.76V98.0078Z" fill="#181E25"/>
<path d="M177.909 101.248H173.037V106.135H177.909V101.248Z" fill="#181E25"/>
<path d="M259.577 101.248H254.705V106.135H259.577V101.248Z" fill="#181E25"/>
<path d="M213.824 80.4492V81.4727H216.374V80.4492H213.824Z" fill="#868686"/>
<path d="M214.909 81.2433V97.5137H215.317V81.2433H214.909Z" fill="#15BA9B"/>
<path d="M217.027 97.609C217.027 97.7893 216.882 97.9348 216.702 97.9348H213.488C213.309 97.9348 213.164 97.7893 213.164 97.609C213.164 97.4287 213.309 97.2832 213.488 97.2832H216.702C216.882 97.2832 217.027 97.4287 217.027 97.609Z" fill="#15BA9B"/>
<path d="M215.043 71.5467H215.185C215.195 71.5467 215.203 71.5467 215.213 71.5479C215.222 71.5479 215.232 71.5504 215.24 71.5517C215.24 71.5517 215.24 71.5517 215.242 71.5517C215.25 71.5529 215.258 71.5554 215.267 71.5579C215.274 71.5591 215.28 71.5616 215.288 71.5641C215.293 71.5654 215.299 71.5678 215.304 71.5703C215.31 71.5728 215.316 71.5753 215.322 71.579C215.322 71.579 215.324 71.579 215.325 71.5803C215.332 71.584 215.34 71.589 215.347 71.5927C215.371 71.6076 215.393 71.6263 215.413 71.6462C215.419 71.6536 215.425 71.6599 215.431 71.6673C215.443 71.6822 215.454 71.6984 215.462 71.7146C215.48 71.7482 215.492 71.7867 215.496 71.8265L215.843 74.8756L215.859 75.0224H214.365L214.381 74.8756L214.728 71.8265C214.745 71.6835 214.854 71.5716 214.99 71.5479C215.006 71.5455 215.024 71.543 215.041 71.543L215.043 71.5467Z" fill="#15BA9B"/>
<path d="M215.183 67.2695V71.546H215.043V67.6389L215.183 67.2695Z" fill="#868686"/>
<path d="M217.396 93.5992C217.396 93.726 217.293 93.8292 217.167 93.8292H213.112C212.985 93.8292 212.882 93.726 212.882 93.5992C212.882 93.4724 212.985 93.3691 213.112 93.3691H217.167C217.293 93.3691 217.396 93.4724 217.396 93.5992Z" fill="white"/>
<path d="M213.621 75.2343V93.3687H216.605V75.2343C216.605 75.1187 216.512 75.0254 216.397 75.0254H213.829C213.714 75.0254 213.621 75.1187 213.621 75.2343Z" fill="white"/>
<path d="M216.197 90.4708C216.197 90.5242 216.154 90.5665 216.102 90.5665H214.177C214.123 90.5665 214.081 90.523 214.081 90.4708C214.081 90.4173 214.124 90.375 214.177 90.375H216.102C216.155 90.375 216.197 90.4185 216.197 90.4708Z" fill="#15BA9B"/>
<path d="M216.197 87.711C216.197 87.7645 216.154 87.8067 216.102 87.8067H214.177C214.123 87.8067 214.081 87.7632 214.081 87.711C214.081 87.6575 214.124 87.6152 214.177 87.6152H216.102C216.155 87.6152 216.197 87.6588 216.197 87.711Z" fill="#15BA9B"/>
<path d="M216.197 84.9512C216.197 85.0047 216.154 85.047 216.102 85.047H214.177C214.123 85.047 214.081 85.0035 214.081 84.9512C214.081 84.8978 214.124 84.8555 214.177 84.8555H216.102C216.155 84.8555 216.197 84.899 216.197 84.9512Z" fill="#15BA9B"/>
<path d="M216.197 82.1915C216.197 82.2449 216.154 82.2872 216.102 82.2872H214.177C214.123 82.2872 214.081 82.2437 214.081 82.1915C214.081 82.138 214.124 82.0957 214.177 82.0957H216.102C216.155 82.0957 216.197 82.1392 216.197 82.1915Z" fill="#15BA9B"/>
<path d="M216.197 79.4317C216.197 79.4852 216.154 79.5274 216.102 79.5274H214.177C214.123 79.5274 214.081 79.4839 214.081 79.4317C214.081 79.3782 214.124 79.3359 214.177 79.3359H216.102C216.155 79.3359 216.197 79.3795 216.197 79.4317Z" fill="#15BA9B"/>
<path opacity="0.2" d="M214.992 71.5501C215.13 71.5737 215.238 71.6856 215.254 71.8286L215.601 74.8778H214.382L214.366 75.0245H215.86L215.844 74.8778L215.497 71.8286C215.493 71.7888 215.481 71.7503 215.463 71.7167C215.455 71.7005 215.445 71.6844 215.432 71.6695C215.426 71.662 215.42 71.6545 215.414 71.6483C215.395 71.6272 215.373 71.6098 215.348 71.5948C215.341 71.5911 215.333 71.5861 215.326 71.5824C215.326 71.5824 215.325 71.5824 215.323 71.5812C215.317 71.5787 215.311 71.5749 215.305 71.5725C215.3 71.57 215.295 71.5687 215.289 71.5662C215.281 71.5638 215.275 71.5613 215.268 71.56C215.259 71.5575 215.251 71.5551 215.243 71.5538H215.241C215.233 71.5526 215.223 71.5501 215.214 71.5501C215.206 71.5501 215.196 71.5488 215.186 71.5488H215.044C215.027 71.5488 215.011 71.5501 214.994 71.5538L214.992 71.5501Z" fill="#3C3C3B"/>
<path opacity="0.2" d="M216.274 93.0347H213.621V93.368H216.274H216.605V93.0347V75.3828H216.274V93.0347Z" fill="#3C3C3B"/>
<path opacity="0.5" d="M214.009 76.3934V77.6481C214.009 77.7821 214.118 77.8906 214.251 77.8906H214.482C214.615 77.8906 214.723 77.7821 214.723 77.6481V76.3934C214.723 76.2595 214.615 76.1509 214.482 76.1509H214.251C214.118 76.1509 214.009 76.2595 214.009 76.3934Z" fill="white"/>
<path d="M207.061 80.4492V81.4727H209.611V80.4492H207.061Z" fill="#868686"/>
<path d="M208.145 81.2433V97.5137H208.553V81.2433H208.145Z" fill="#15BA9B"/>
<path d="M210.261 97.609C210.261 97.7893 210.116 97.9348 209.937 97.9348H206.723C206.543 97.9348 206.398 97.7893 206.398 97.609C206.398 97.4287 206.543 97.2832 206.723 97.2832H209.937C210.116 97.2832 210.261 97.4287 210.261 97.609Z" fill="#15BA9B"/>
<path d="M208.279 71.5467H208.421C208.43 71.5467 208.439 71.5467 208.449 71.5479C208.458 71.5479 208.468 71.5504 208.476 71.5517C208.476 71.5517 208.476 71.5517 208.478 71.5517C208.486 71.5529 208.494 71.5554 208.502 71.5579C208.51 71.5591 208.516 71.5616 208.523 71.5641C208.528 71.5654 208.535 71.5678 208.54 71.5703C208.546 71.5728 208.552 71.5753 208.558 71.579C208.558 71.579 208.559 71.579 208.561 71.5803C208.568 71.584 208.576 71.589 208.583 71.5927C208.607 71.6076 208.629 71.6263 208.649 71.6462C208.655 71.6536 208.661 71.6599 208.667 71.6673C208.678 71.6822 208.69 71.6984 208.698 71.7146C208.716 71.7482 208.728 71.7867 208.732 71.8265L209.079 74.8756L209.095 75.0224H207.601L207.617 74.8756L207.964 71.8265C207.98 71.6835 208.09 71.5716 208.226 71.5479C208.242 71.5455 208.259 71.543 208.277 71.543L208.279 71.5467Z" fill="#15BA9B"/>
<path d="M208.419 67.2695V71.546H208.279V67.6389L208.419 67.2695Z" fill="#868686"/>
<path d="M210.632 93.5992C210.632 93.726 210.529 93.8292 210.403 93.8292H206.348C206.221 93.8292 206.118 93.726 206.118 93.5992C206.118 93.4724 206.221 93.3691 206.348 93.3691H210.403C210.529 93.3691 210.632 93.4724 210.632 93.5992Z" fill="white"/>
<path d="M206.857 75.2343V93.3687H209.841V75.2343C209.841 75.1187 209.748 75.0254 209.633 75.0254H207.065C206.95 75.0254 206.857 75.1187 206.857 75.2343Z" fill="white"/>
<path d="M209.433 90.4708C209.433 90.5242 209.39 90.5665 209.338 90.5665H207.412C207.359 90.5665 207.317 90.523 207.317 90.4708C207.317 90.4173 207.36 90.375 207.412 90.375H209.338C209.391 90.375 209.433 90.4185 209.433 90.4708Z" fill="#15BA9B"/>
<path d="M209.433 87.711C209.433 87.7645 209.39 87.8067 209.338 87.8067H207.412C207.359 87.8067 207.317 87.7632 207.317 87.711C207.317 87.6575 207.36 87.6152 207.412 87.6152H209.338C209.391 87.6152 209.433 87.6588 209.433 87.711Z" fill="#15BA9B"/>
<path d="M209.433 84.9512C209.433 85.0047 209.39 85.047 209.338 85.047H207.412C207.359 85.047 207.317 85.0035 207.317 84.9512C207.317 84.8978 207.36 84.8555 207.412 84.8555H209.338C209.391 84.8555 209.433 84.899 209.433 84.9512Z" fill="#15BA9B"/>
<path d="M209.433 82.1915C209.433 82.2449 209.39 82.2872 209.338 82.2872H207.412C207.359 82.2872 207.317 82.2437 207.317 82.1915C207.317 82.138 207.36 82.0957 207.412 82.0957H209.338C209.391 82.0957 209.433 82.1392 209.433 82.1915Z" fill="#15BA9B"/>
<path d="M209.433 79.4317C209.433 79.4852 209.39 79.5274 209.338 79.5274H207.412C207.359 79.5274 207.317 79.4839 207.317 79.4317C207.317 79.3782 207.36 79.3359 207.412 79.3359H209.338C209.391 79.3359 209.433 79.3795 209.433 79.4317Z" fill="#15BA9B"/>
<path opacity="0.2" d="M208.228 71.5501C208.366 71.5737 208.474 71.6856 208.49 71.8286L208.837 74.8778H207.618L207.602 75.0245H209.096L209.08 74.8778L208.733 71.8286C208.729 71.7888 208.717 71.7503 208.699 71.7167C208.691 71.7005 208.681 71.6844 208.668 71.6695C208.662 71.662 208.656 71.6545 208.65 71.6483C208.631 71.6272 208.609 71.6098 208.584 71.5948C208.576 71.5911 208.569 71.5861 208.562 71.5824C208.562 71.5824 208.56 71.5824 208.559 71.5812C208.553 71.5787 208.547 71.5749 208.541 71.5725C208.536 71.57 208.531 71.5687 208.524 71.5662C208.517 71.5638 208.511 71.5613 208.503 71.56C208.495 71.5575 208.487 71.5551 208.479 71.5538H208.477C208.469 71.5526 208.459 71.5501 208.45 71.5501C208.441 71.5501 208.431 71.5488 208.422 71.5488H208.28C208.263 71.5488 208.247 71.5501 208.229 71.5538L208.228 71.5501Z" fill="#3C3C3B"/>
<path opacity="0.2" d="M209.509 93.0347H206.857V93.368H209.509H209.841V93.0347V75.3828H209.509V93.0347Z" fill="#3C3C3B"/>
<path opacity="0.5" d="M207.245 76.3934V77.6481C207.245 77.7821 207.353 77.8906 207.487 77.8906H207.717C207.851 77.8906 207.959 77.7821 207.959 77.6481V76.3934C207.959 76.2595 207.851 76.1509 207.717 76.1509H207.487C207.353 76.1509 207.245 76.2595 207.245 76.3934Z" fill="white"/>
<path d="M200.793 80.4492V81.4727H203.344V80.4492H200.793Z" fill="#868686"/>
<path d="M201.878 81.2414V97.5117H202.286V81.2414H201.878Z" fill="#15BA9B"/>
<path d="M203.994 97.609C203.994 97.7893 203.849 97.9348 203.67 97.9348H200.456C200.276 97.9348 200.131 97.7893 200.131 97.609C200.131 97.4287 200.276 97.2832 200.456 97.2832H203.67C203.849 97.2832 203.994 97.4287 203.994 97.609Z" fill="#15BA9B"/>
<path d="M202.011 71.5467H202.152C202.162 71.5467 202.171 71.5467 202.181 71.5479C202.19 71.5479 202.2 71.5504 202.208 71.5517C202.208 71.5517 202.208 71.5517 202.21 71.5517C202.218 71.5529 202.226 71.5554 202.234 71.5579C202.242 71.5591 202.248 71.5616 202.255 71.5641C202.26 71.5654 202.267 71.5678 202.271 71.5703C202.278 71.5728 202.284 71.5753 202.29 71.579C202.29 71.579 202.291 71.579 202.293 71.5803C202.3 71.584 202.307 71.589 202.315 71.5927C202.338 71.6076 202.361 71.6263 202.381 71.6462C202.387 71.6536 202.393 71.6599 202.399 71.6673C202.41 71.6822 202.422 71.6984 202.43 71.7146C202.448 71.7482 202.46 71.7867 202.464 71.8265L202.811 74.8756L202.827 75.0224H201.333L201.349 74.8756L201.696 71.8265C201.712 71.6835 201.821 71.5716 201.958 71.5479C201.974 71.5455 201.991 71.543 202.009 71.543L202.011 71.5467Z" fill="#15BA9B"/>
<path d="M202.152 67.2695V71.546H202.011V67.6389L202.152 67.2695Z" fill="#868686"/>
<path d="M204.364 93.5992C204.364 93.726 204.261 93.8292 204.135 93.8292H200.079C199.953 93.8292 199.85 93.726 199.85 93.5992C199.85 93.4724 199.953 93.3691 200.079 93.3691H204.135C204.261 93.3691 204.364 93.4724 204.364 93.5992Z" fill="white"/>
<path d="M200.589 75.2343V93.3687H203.573V75.2343C203.573 75.1187 203.48 75.0254 203.365 75.0254H200.797C200.682 75.0254 200.589 75.1187 200.589 75.2343Z" fill="white"/>
<path d="M203.165 90.4708C203.165 90.5242 203.122 90.5665 203.07 90.5665H201.144C201.091 90.5665 201.049 90.523 201.049 90.4708C201.049 90.4173 201.092 90.375 201.144 90.375H203.07C203.123 90.375 203.165 90.4185 203.165 90.4708Z" fill="#15BA9B"/>
<path d="M203.165 87.711C203.165 87.7645 203.122 87.8067 203.07 87.8067H201.144C201.091 87.8067 201.049 87.7632 201.049 87.711C201.049 87.6575 201.092 87.6152 201.144 87.6152H203.07C203.123 87.6152 203.165 87.6588 203.165 87.711Z" fill="#15BA9B"/>
<path d="M203.165 84.9512C203.165 85.0047 203.122 85.047 203.07 85.047H201.144C201.091 85.047 201.049 85.0035 201.049 84.9512C201.049 84.8978 201.092 84.8555 201.144 84.8555H203.07C203.123 84.8555 203.165 84.899 203.165 84.9512Z" fill="#15BA9B"/>
<path d="M203.165 82.1915C203.165 82.2449 203.122 82.2872 203.07 82.2872H201.144C201.091 82.2872 201.049 82.2437 201.049 82.1915C201.049 82.138 201.092 82.0957 201.144 82.0957H203.07C203.123 82.0957 203.165 82.1392 203.165 82.1915Z" fill="#15BA9B"/>
<path d="M203.165 79.4317C203.165 79.4852 203.122 79.5274 203.07 79.5274H201.144C201.091 79.5274 201.049 79.4839 201.049 79.4317C201.049 79.3782 201.092 79.3359 201.144 79.3359H203.07C203.123 79.3359 203.165 79.3795 203.165 79.4317Z" fill="#15BA9B"/>
<path opacity="0.2" d="M201.962 71.5501C202.099 71.5737 202.207 71.6856 202.223 71.8286L202.57 74.8778H201.352L201.335 75.0245H202.829L202.813 74.8778L202.466 71.8286C202.462 71.7888 202.45 71.7503 202.433 71.7167C202.424 71.7005 202.414 71.6844 202.402 71.6695C202.395 71.662 202.389 71.6545 202.383 71.6483C202.364 71.6272 202.342 71.6098 202.317 71.5948C202.31 71.5911 202.302 71.5861 202.295 71.5824C202.295 71.5824 202.294 71.5824 202.293 71.5812C202.286 71.5787 202.28 71.5749 202.274 71.5725C202.269 71.57 202.264 71.5687 202.258 71.5662C202.25 71.5638 202.244 71.5613 202.237 71.56C202.228 71.5575 202.221 71.5551 202.212 71.5538H202.211C202.202 71.5526 202.192 71.5501 202.183 71.5501C202.175 71.5501 202.165 71.5488 202.155 71.5488H202.014C201.996 71.5488 201.98 71.5501 201.963 71.5538L201.962 71.5501Z" fill="#3C3C3B"/>
<path opacity="0.2" d="M203.242 93.0347H200.589V93.368H203.242H203.574V93.0347V75.3828H203.242V93.0347Z" fill="#3C3C3B"/>
<path opacity="0.5" d="M200.978 76.3934V77.6481C200.978 77.7821 201.086 77.8906 201.22 77.8906H201.45C201.584 77.8906 201.692 77.7821 201.692 77.6481V76.3934C201.692 76.2595 201.584 76.1509 201.45 76.1509H201.22C201.086 76.1509 200.978 76.2595 200.978 76.3934Z" fill="white"/>
<path d="M87.0606 89.1426H52.965C51.4415 89.1426 50.2065 90.3813 50.2065 91.9094V124.204C50.2065 125.732 51.4415 126.971 52.965 126.971H87.0606C88.584 126.971 89.819 125.732 89.819 124.204V91.9094C89.819 90.3813 88.584 89.1426 87.0606 89.1426Z" fill="#855DDB"/>
<path d="M81.747 94.207H58.2798C57.1022 94.207 56.1475 95.1646 56.1475 96.3459V109.852C56.1475 111.033 57.1022 111.991 58.2798 111.991H81.747C82.9247 111.991 83.8794 111.033 83.8794 109.852V96.3459C83.8794 95.1646 82.9247 94.207 81.747 94.207Z" fill="white"/>
<path d="M60.6564 117.506H56.1475V119.876H60.6564V117.506Z" fill="#A78CF4"/>
<path d="M67.9587 117.506H63.4497V119.876H67.9587V117.506Z" fill="#A78CF4"/>
<path d="M56.1475 105.66H58.4013L60.6564 98.4772L62.3412 108.414L63.4496 102.469L64.3385 105.108L66.6766 105.044L67.9585 99.4248L69.0818 107.8L70.6252 101.667L71.8613 104.762L73.825 104.731L75.8843 97.8828L77.8827 108.414L79.0642 104.2H83.7492" stroke="#855DDB" stroke-linecap="round" stroke-linejoin="round"/>
<path d="M76.9465 126.973H63.6973V131.503H76.9465V126.973Z" fill="#7149C6"/>
<path d="M179.636 73.6421V72.1113H173.875V73.6421C173.875 75.3905 173.143 77.0469 171.89 78.2618C171.255 78.8774 170.86 79.7404 170.86 80.6954V96.0294C170.86 97.0665 171.698 97.9071 172.732 97.9071H180.777C181.811 97.9071 182.649 97.0665 182.649 96.0294V80.6954C182.649 79.7404 182.254 78.8774 181.618 78.2618C180.365 77.0469 179.634 75.3893 179.634 73.6421H179.636Z" fill="#6F6F6E"/>
<path d="M179.544 69.3042V68.7421C179.544 68.5967 179.426 68.4785 179.281 68.4785H174.088C173.943 68.4785 173.825 68.5967 173.825 68.7421V69.3042C173.564 69.3042 173.352 69.5169 173.352 69.7792V71.6371C173.352 71.8995 173.564 72.1121 173.825 72.1121H179.545C179.807 72.1121 180.019 71.8995 180.019 71.6371V69.7792C180.019 69.5169 179.807 69.3042 179.545 69.3042H179.544Z" fill="white"/>
<path opacity="0.1" d="M179.544 69.0977H173.824V69.3041H179.544V69.0977Z" fill="#575756"/>
<path opacity="0.1" d="M174.038 69.6895H173.994C173.942 69.6895 173.899 69.7318 173.899 69.784V71.6318C173.899 71.684 173.942 71.7264 173.994 71.7264H174.038C174.09 71.7264 174.132 71.684 174.132 71.6318V69.784C174.132 69.7318 174.09 69.6895 174.038 69.6895Z" fill="#575756"/>
<path opacity="0.1" d="M175.121 69.6895H175.076C175.024 69.6895 174.982 69.7318 174.982 69.784V71.6318C174.982 71.684 175.024 71.7264 175.076 71.7264H175.121C175.173 71.7264 175.215 71.684 175.215 71.6318V69.784C175.215 69.7318 175.173 69.6895 175.121 69.6895Z" fill="#575756"/>
<path opacity="0.1" d="M176.203 69.6895H176.158C176.106 69.6895 176.064 69.7318 176.064 69.784V71.6318C176.064 71.684 176.106 71.7264 176.158 71.7264H176.203C176.255 71.7264 176.297 71.684 176.297 71.6318V69.784C176.297 69.7318 176.255 69.6895 176.203 69.6895Z" fill="#575756"/>
<path opacity="0.1" d="M177.285 69.6895H177.241C177.189 69.6895 177.146 69.7318 177.146 69.784V71.6318C177.146 71.684 177.189 71.7264 177.241 71.7264H177.285C177.337 71.7264 177.38 71.684 177.38 71.6318V69.784C177.38 69.7318 177.337 69.6895 177.285 69.6895Z" fill="#575756"/>
<path opacity="0.1" d="M178.367 69.6895H178.323C178.271 69.6895 178.229 69.7318 178.229 69.784V71.6318C178.229 71.684 178.271 71.7264 178.323 71.7264H178.367C178.419 71.7264 178.462 71.684 178.462 71.6318V69.784C178.462 69.7318 178.419 69.6895 178.367 69.6895Z" fill="#575756"/>
<path opacity="0.1" d="M179.45 69.6895H179.405C179.353 69.6895 179.311 69.7318 179.311 69.784V71.6318C179.311 71.684 179.353 71.7264 179.405 71.7264H179.45C179.502 71.7264 179.544 71.684 179.544 71.6318V69.784C179.544 69.7318 179.502 69.6895 179.45 69.6895Z" fill="#575756"/>
<path opacity="0.1" d="M179.588 69.3066V70.7678C179.588 71.0302 179.376 71.2428 179.114 71.2428H173.394C173.379 71.2428 173.364 71.2428 173.351 71.2403V71.637C173.351 71.8994 173.563 72.112 173.824 72.112H179.544C179.806 72.112 180.018 71.8994 180.018 71.637V69.7792C180.018 69.5317 179.83 69.329 179.589 69.3066H179.588Z" fill="#575756"/>
<path opacity="0.1" d="M179.542 68.7053C179.526 68.5891 179.433 68.4967 179.316 68.4805C179.415 68.5267 179.494 68.6066 179.542 68.7053Z" fill="#575756"/>
<path opacity="0.4" d="M179.636 72.1113H173.875V72.8537H179.636V72.1113Z" fill="#3C3C3B"/>
<path d="M180.017 85.6914H170.865V93.3976H180.017V85.6914Z" fill="white"/>
<path opacity="0.4" d="M181.617 78.3262C181.493 78.2056 181.374 78.0812 181.261 77.9531C181.411 78.3361 181.494 78.754 181.494 79.1917V94.5257C181.494 95.5628 180.656 96.4034 179.622 96.4034H171.578C171.326 96.4034 171.085 96.3537 170.865 96.2629C170.95 97.2216 171.752 97.9727 172.729 97.9727H180.774C181.808 97.9727 182.646 97.1321 182.646 96.095V80.761C182.646 79.806 182.252 78.943 181.616 78.3274L181.617 78.3262Z" fill="#3C3C3B"/>
<path opacity="0.2" d="M174.794 79.8027H173.053C172.695 79.8027 172.405 80.0939 172.405 80.4531V83.4712C172.405 83.8303 172.695 84.1215 173.053 84.1215H174.794C175.152 84.1215 175.442 83.8303 175.442 83.4712V80.4531C175.442 80.0939 175.152 79.8027 174.794 79.8027Z" fill="white"/>
<path d="M178.346 87.1777H170.861V88.6041H178.346V87.1777Z" fill="#15BA9B"/>
<path d="M180.018 90.6797H176.297V93.3968H180.018V90.6797Z" fill="#15BA9B"/>
<path d="M194.718 73.5152V71.9844H188.956V73.5152C188.956 75.2636 188.225 76.92 186.972 78.1349C186.337 78.7504 185.941 79.6134 185.941 80.5685V95.9025C185.941 96.9396 186.779 97.7802 187.813 97.7802H195.858C196.892 97.7802 197.73 96.9396 197.73 95.9025V80.5685C197.73 79.6134 197.336 78.7504 196.7 78.1349C195.447 76.92 194.715 75.2623 194.715 73.5152H194.718Z" fill="#15BA9B"/>
<path d="M194.625 69.1773V68.6152C194.625 68.4697 194.507 68.3516 194.362 68.3516H189.169C189.023 68.3516 188.906 68.4697 188.906 68.6152V69.1773C188.644 69.1773 188.432 69.3899 188.432 69.6523V71.5101C188.432 71.7725 188.644 71.9852 188.906 71.9852H194.626C194.888 71.9852 195.1 71.7725 195.1 71.5101V69.6523C195.1 69.3899 194.888 69.1773 194.626 69.1773H194.625Z" fill="white"/>
<path opacity="0.1" d="M194.624 68.9707H188.904V69.1771H194.624V68.9707Z" fill="#575756"/>
<path opacity="0.1" d="M189.074 69.5625H189.12C189.172 69.5625 189.214 69.6048 189.214 69.657V71.5049C189.214 71.5571 189.172 71.5994 189.12 71.5994H189.074C189.022 71.5994 188.98 71.5571 188.98 71.5049V69.657C188.98 69.6048 189.022 69.5625 189.074 69.5625Z" fill="#575756"/>
<path opacity="0.1" d="M190.201 69.5625H190.157C190.105 69.5625 190.062 69.6048 190.062 69.657V71.5049C190.062 71.5571 190.105 71.5994 190.157 71.5994H190.201C190.253 71.5994 190.296 71.5571 190.296 71.5049V69.657C190.296 69.6048 190.253 69.5625 190.201 69.5625Z" fill="#575756"/>
<path opacity="0.1" d="M191.283 69.5625H191.239C191.187 69.5625 191.145 69.6048 191.145 69.657V71.5049C191.145 71.5571 191.187 71.5994 191.239 71.5994H191.283C191.335 71.5994 191.378 71.5571 191.378 71.5049V69.657C191.378 69.6048 191.335 69.5625 191.283 69.5625Z" fill="#575756"/>
<path opacity="0.1" d="M192.366 69.5625H192.321C192.269 69.5625 192.227 69.6048 192.227 69.657V71.5049C192.227 71.5571 192.269 71.5994 192.321 71.5994H192.366C192.418 71.5994 192.46 71.5571 192.46 71.5049V69.657C192.46 69.6048 192.418 69.5625 192.366 69.5625Z" fill="#575756"/>
<path opacity="0.1" d="M193.448 69.5625H193.403C193.351 69.5625 193.309 69.6048 193.309 69.657V71.5049C193.309 71.5571 193.351 71.5994 193.403 71.5994H193.448C193.5 71.5994 193.542 71.5571 193.542 71.5049V69.657C193.542 69.6048 193.5 69.5625 193.448 69.5625Z" fill="#575756"/>
<path opacity="0.1" d="M194.53 69.5625H194.486C194.434 69.5625 194.392 69.6048 194.392 69.657V71.5049C194.392 71.5571 194.434 71.5994 194.486 71.5994H194.53C194.582 71.5994 194.625 71.5571 194.625 71.5049V69.657C194.625 69.6048 194.582 69.5625 194.53 69.5625Z" fill="#575756"/>
<path opacity="0.1" d="M194.669 69.1797V70.6408C194.669 70.9032 194.457 71.1159 194.196 71.1159H188.476C188.461 71.1159 188.446 71.1159 188.432 71.1134V71.5101C188.432 71.7724 188.644 71.9851 188.906 71.9851H194.626C194.888 71.9851 195.1 71.7724 195.1 71.5101V69.6522C195.1 69.4048 194.911 69.2021 194.671 69.1797H194.669Z" fill="#575756"/>
<path opacity="0.1" d="M194.623 68.5783C194.607 68.4622 194.515 68.3697 194.398 68.3535C194.496 68.3997 194.576 68.4796 194.623 68.5783Z" fill="#575756"/>
<path opacity="0.4" d="M194.718 71.9844H188.957V72.7268H194.718V71.9844Z" fill="#6F6F6E"/>
<path d="M195.098 85.5645H185.946V93.2706H195.098V85.5645Z" fill="white"/>
<path opacity="0.4" d="M196.699 78.2012C196.575 78.0806 196.456 77.9562 196.343 77.8281C196.493 78.2111 196.576 78.629 196.576 79.0667V94.4007C196.576 95.4378 195.738 96.2784 194.704 96.2784H186.659C186.407 96.2784 186.167 96.2287 185.946 96.1379C186.032 97.0966 186.834 97.8477 187.811 97.8477H195.856C196.89 97.8477 197.728 97.0071 197.728 95.97V80.636C197.728 79.681 197.333 78.818 196.697 78.2024L196.699 78.2012Z" fill="#6F6F6E"/>
<path opacity="0.2" d="M189.874 79.6777H188.133C187.775 79.6777 187.485 79.9689 187.485 80.3281V83.3462C187.485 83.7053 187.775 83.9965 188.133 83.9965H189.874C190.232 83.9965 190.522 83.7053 190.522 83.3462V80.3281C190.522 79.9689 190.232 79.6777 189.874 79.6777Z" fill="white"/>
<path d="M193.427 87.0508H185.943V88.4771H193.427V87.0508Z" fill="#575756"/>
<path d="M195.098 90.5527H191.378V93.2699H195.098V90.5527Z" fill="#575756"/>
<path opacity="0.2" d="M89.6515 23.7266H49.3076V75.8355H89.6515V23.7266Z" fill="#868686"/>
<path d="M86.609 21.834H46.2651V73.9429H86.609V21.834Z" fill="#623DAF"/>
<path d="M83.48 24.2598H49.3931V71.5152H83.48V24.2598Z" fill="white"/>
<path d="M79.8933 37.4922H57.7725V38.8004H79.8933V37.4922Z" fill="#855DDB"/>
<path d="M79.8933 40.168H57.7725V41.4762H79.8933V40.168Z" fill="#855DDB"/>
<path d="M79.8933 44.375H57.7725V45.6832H79.8933V44.375Z" fill="#855DDB"/>
<path d="M79.8933 51.6387H57.7725V52.9469H79.8933V51.6387Z" fill="#855DDB"/>
<path d="M79.8933 55.0508H57.7725V56.359H79.8933V55.0508Z" fill="#855DDB"/>
<path d="M67.8924 47.2344H57.7798V48.5426H67.8924V47.2344Z" fill="#855DDB"/>
<path d="M79.8933 59.25H57.7725V60.5582H79.8933V59.25Z" fill="#855DDB"/>
<path d="M67.8924 62.1113H57.7798V63.4195H67.8924V62.1113Z" fill="#855DDB"/>
<path d="M80.7425 68.2518C81.5919 66.6428 80.98 64.6478 79.3758 63.7958C77.7717 62.9439 75.7827 63.5576 74.9334 65.1667C74.084 66.7757 74.6959 68.7707 76.3001 69.6227C77.9042 70.4746 79.8932 69.8608 80.7425 68.2518Z" stroke="#855DDB" stroke-miterlimit="10"/>
<path d="M55.4394 25.7637H53.8364V32.0659H55.4394V25.7637Z" fill="#855DDB"/>
<path d="M57.7788 29.7173V28.1094H51.4958V29.7173H57.7788Z" fill="#855DDB"/>
<path d="M79.8931 27.6016H62.8354V30.2279H79.8931V27.6016Z" fill="#855DDB"/>
<path d="M52.2979 37.4922L53.4496 40.167L54.6385 37.4922" stroke="#855DDB" stroke-linecap="round" stroke-linejoin="round"/>
<path d="M52.2979 44.5586L53.4496 47.2347L54.6385 44.5586" stroke="#855DDB" stroke-linecap="round" stroke-linejoin="round"/>
<path d="M52.2979 51.625L53.4496 54.3011L54.6385 51.625" stroke="#855DDB" stroke-linecap="round" stroke-linejoin="round"/>
<path d="M118.705 217.799H121.937L121.937 84.9027H118.705L118.705 217.799Z" fill="#353042"/>
<path d="M133.204 87.0488H107.437C106.005 87.0488 104.841 85.8824 104.841 84.4449V84.3155H135.798V84.4449C135.798 85.8812 134.635 87.0488 133.202 87.0488H133.204Z" fill="#353042"/>
<path d="M105.216 220.152H135.425C135.425 217.932 133.738 216.133 131.658 216.133H108.984C106.904 216.133 105.216 217.932 105.216 220.152Z" fill="#353042"/>
<path d="M132.995 222.406C133.657 222.406 134.193 221.834 134.193 221.129C134.193 220.423 133.657 219.852 132.995 219.852C132.334 219.852 131.798 220.423 131.798 221.129C131.798 221.834 132.334 222.406 132.995 222.406Z" fill="#353042"/>
<path d="M107.365 222.406C108.026 222.406 108.563 221.834 108.563 221.129C108.563 220.423 108.026 219.852 107.365 219.852C106.704 219.852 106.167 220.423 106.167 221.129C106.167 221.834 106.704 222.406 107.365 222.406Z" fill="#353042"/>
<path d="M132.32 114.342H133.307V86.4668H132.32V114.342Z" fill="#353042"/>
<path d="M131.945 136.619H133.68C136.515 136.619 138.814 134.314 138.814 131.47V116.807C138.814 113.963 136.515 111.658 133.68 111.658H131.945C129.109 111.658 126.811 113.963 126.811 116.807V131.47C126.811 134.314 129.109 136.619 131.945 136.619Z" fill="#F29100"/>
<path opacity="0.2" d="M128.313 113.17C128.1 113.736 127.982 114.35 127.982 114.99V129.653C127.982 132.497 130.281 134.802 133.116 134.802H134.852C136.27 134.802 137.554 134.225 138.483 133.293C137.749 135.238 135.877 136.622 133.68 136.622H131.944C129.109 136.622 126.811 134.316 126.811 131.472V116.81C126.811 115.388 127.385 114.101 128.313 113.17Z" fill="#BD1622"/>
<path d="M131.495 127.516H138.815V120.174H131.495V127.516Z" fill="white"/>
<path d="M131.148 138.969H134.477C134.829 138.969 135.115 138.682 135.115 138.328V137.169C135.115 136.816 134.829 136.529 134.477 136.529H131.148C130.795 136.529 130.51 136.816 130.51 137.169V138.328C130.51 138.682 130.795 138.969 131.148 138.969Z" fill="#353042"/>
<path d="M132.813 144.647C133.461 144.647 133.985 144.121 133.985 143.472V138.969H131.643V143.472C131.643 144.121 132.167 144.647 132.815 144.647H132.813Z" fill="#353042"/>
<path opacity="0.2" d="M131.114 136.532C131.034 136.639 130.986 136.77 130.986 136.913V138.071C130.986 138.425 131.272 138.711 131.624 138.711H132.116V143.214C132.116 143.863 132.641 144.389 133.288 144.389C133.392 144.389 133.493 144.374 133.589 144.348C133.382 144.532 133.111 144.645 132.812 144.645C132.165 144.645 131.64 144.119 131.64 143.47V138.967H131.148C130.795 138.967 130.51 138.68 130.51 138.327V137.169C130.51 136.827 130.776 136.551 131.112 136.531L131.114 136.532Z" fill="#3C3C3B"/>
<path d="M460.253 139.99C460.253 139.99 459.328 147.644 458.172 151.124C457.015 154.603 455.918 157.927 456.775 166.276C457.632 174.625 458.164 175.321 458.36 177.486C458.556 179.651 458.249 188.776 458.711 190.282C459.173 191.79 456.013 202.225 455.783 206.709C455.551 211.194 454.704 217.764 455.783 220.626L456.399 220.239C456.399 220.239 454.78 213.281 457.247 204.931C459.713 196.582 458.634 195.501 462.796 190.282C466.958 185.063 467.267 174.24 467.267 174.24C467.267 174.24 469.27 161.947 467.267 156.535C465.263 151.124 465.108 145.712 460.252 139.991L460.253 139.99Z" fill="#684ABC"/>
<path d="M449.821 132.029C449.821 132.029 451.042 136.469 450.464 139.525C449.887 142.581 449.177 144.552 449.821 147.452C450.464 150.351 451.899 157.898 449.101 162.706C446.302 167.514 449.192 178.299 447.227 182.474C445.262 186.648 445.608 189.084 447.92 194.418C450.232 199.753 454.549 206.787 453.393 218.152L451.62 215.987C451.62 215.987 452.106 206.787 449.82 202.226C447.535 197.665 442.602 191.248 442.447 187.459C442.293 183.671 438.516 184.135 438.978 178.182C439.44 172.229 437.976 170.684 439.44 165.194C439.44 165.194 439.672 164.884 439.209 160.786C438.746 156.689 442.677 147.644 444.758 144.32C446.839 140.996 449.714 135.815 449.817 132.027L449.821 132.029Z" fill="#684ABC"/>
<path d="M445.14 157.458C445.14 157.458 443.599 164.416 444.755 168.205C445.912 171.993 447.299 174.931 447.221 180.651C447.143 186.372 451.614 188.537 451.537 191.706C451.461 194.876 452.462 198.277 453.31 200.829C454.158 203.381 452.925 213.121 453.696 217.605C454.467 222.09 455.237 221.857 455.237 221.857C455.237 221.857 454.08 215.981 454.389 213.816C454.698 211.651 455.391 204.307 455.237 201.601C455.083 198.895 456.315 196.73 456.47 192.015C456.624 187.299 457.627 183.046 455.546 177.094C453.464 171.141 453.85 164.028 445.14 157.457V157.458Z" fill="#9A7BEF"/>
<path d="M456.25 217.197C456.25 217.197 455.466 209.247 461.94 206.347C468.414 203.448 472.782 203.513 475.788 196.554C478.795 189.596 478.795 180.087 479.835 178.115C479.835 178.115 477.06 177.651 474.286 182.638C471.511 187.624 469.629 191.335 468.026 194.235C466.425 197.133 464.111 196.323 462.146 198.525C460.499 200.372 458.977 204.668 458.4 206.847C458.213 207.556 457.94 208.237 457.579 208.875C457.252 209.454 456.866 210.161 456.634 210.663C456.172 211.668 455.739 217.389 455.739 217.389L456.25 217.197Z" fill="#9A7BEF"/>
<path d="M453.465 216.645C453.465 216.645 452.926 206.788 449.92 202.846C446.913 198.902 440.902 197.202 440.208 194.341C439.515 191.481 440.284 182.899 435.891 178.105C435.891 178.105 436.507 183.441 435.891 184.872C435.275 186.3 430.033 192.949 433.116 198.516C436.199 204.082 443.136 203.386 445.294 204.624C447.453 205.861 449.611 205.165 449.995 206.325C450.381 207.485 452.154 211.583 452.77 215.988L453.464 216.646L453.465 216.645Z" fill="#9A7BEF"/>
<path d="M454.107 209.726L454.364 199.056C454.364 199.056 453.851 190.707 452.925 183.904C452 177.101 445.14 157.459 445.14 157.459C445.14 157.459 443.599 164.417 444.755 168.206C445.912 171.993 447.299 174.932 447.221 180.652C447.143 186.372 451.614 188.537 451.537 191.707C451.461 194.877 452.462 198.278 453.31 200.83C454.158 203.381 452.925 213.122 453.696 217.606C454.119 220.062 454.54 221.102 454.835 221.542C453.103 217.959 454.106 209.726 454.106 209.726H454.107Z" fill="#855DDB"/>
<path d="M468.649 198.749C465.874 200.294 463.159 200.943 460.479 204.701C457.798 208.459 456.626 211.93 456.626 211.93C456.626 211.93 455.949 215.274 455.773 216.979C455.752 217.237 455.739 217.392 455.739 217.392L456.25 217.199C456.25 217.199 455.466 209.249 461.94 206.349C468.414 203.45 472.782 203.515 475.788 196.556C478.795 189.599 478.795 180.089 479.835 178.117C479.835 178.117 476.049 183.672 474.044 188.156C472.041 192.64 471.423 197.202 468.649 198.747V198.749Z" fill="#855DDB"/>
<path d="M435.892 184.872C435.276 186.3 430.034 192.949 433.118 198.516C436.201 204.082 443.137 203.386 445.296 204.623C447.454 205.86 449.613 205.163 449.997 206.324C450.382 207.484 452.155 211.581 452.771 215.987L453.074 216.274C452.904 214.532 452.598 211.893 452.154 209.957C451.435 206.814 450.535 205.706 448.763 203.541C446.991 201.376 439.283 198.283 436.908 196.119C434.532 193.954 437.587 188.079 437.896 185.616C438.204 183.154 435.891 178.105 435.891 178.105C435.891 178.105 436.507 183.441 435.891 184.872H435.892Z" fill="#855DDB"/>
<path d="M455.56 209.174H446.589C445.975 209.174 445.523 210.016 445.665 210.894L448.936 231.13C449.037 231.759 449.42 232.204 449.859 232.204H460.635C461.075 232.204 461.457 231.76 461.559 231.13L464.829 210.894C464.97 210.016 464.518 209.174 463.905 209.174H455.56Z" fill="#855DDB"/>
<g style="mix-blend-mode:multiply" opacity="0.5">
<path d="M447.825 224.259H462.67L463.844 216.992H446.651L447.825 224.259Z" fill="#90A6CB"/>
</g>
<path d="M419.037 30.2441H323.636V137.759H419.037V30.2441Z" fill="#CEBCFF"/>
<path d="M421.539 140.269H321.133V27.7344H421.539V140.269ZM326.138 135.249H416.533V32.7545H326.138V135.248V135.249Z" fill="white"/>
<path opacity="0.2" d="M350.244 30.2441L323.636 92.7577V124.863L364.178 30.2441H350.244Z" fill="white"/>
<path opacity="0.2" d="M393.97 30.2441L350.244 137.757H384.729L419.036 49.305V30.2441H393.97Z" fill="white"/>
<path d="M373.839 30.9629H368.834V136.484H373.839V30.9629Z" fill="white"/>
<path d="M434.665 16.1465H307.988V21.2077H434.665V16.1465Z" fill="#ADA6E2"/>
<path d="M434.665 23.377H307.988V25.2671H434.665V23.377Z" fill="#ADA6E2"/>
<path d="M434.665 26.8848H307.988V28.7749H434.665V26.8848Z" fill="#ADA6E2"/>
<path d="M434.665 30.3965H307.988V32.2866H434.665V30.3965Z" fill="#ADA6E2"/>
<path d="M434.665 33.9062H307.988V35.7964H434.665V33.9062Z" fill="#ADA6E2"/>
<path d="M434.665 37.6836H307.988V39.5738H434.665V37.6836Z" fill="#ADA6E2"/>
<path d="M434.665 41.1953H307.988V43.0855H434.665V41.1953Z" fill="#ADA6E2"/>
<path d="M434.665 44.7051H307.988V46.5952H434.665V44.7051Z" fill="#ADA6E2"/>
<path d="M434.665 48.2148H307.988V50.105H434.665V48.2148Z" fill="#ADA6E2"/>
<path d="M434.665 51.7246H307.988V53.6148H434.665V51.7246Z" fill="#ADA6E2"/>
<path d="M434.665 55.2324H307.988V57.1226H434.665V55.2324Z" fill="#ADA6E2"/>
<path d="M434.665 58.7441H307.988V60.6343H434.665V58.7441Z" fill="#ADA6E2"/>
<path d="M434.665 58.6562H307.988V60.5464H434.665V58.6562Z" fill="#ADA6E2"/>
<path d="M434.665 62.1641H307.988V64.0542H434.665V62.1641Z" fill="#ADA6E2"/>
<path d="M434.665 65.6738H307.988V67.564H434.665V65.6738Z" fill="#ADA6E2"/>
<path d="M434.665 69.1836H307.988V71.0738H434.665V69.1836Z" fill="#ADA6E2"/>
<path d="M434.665 72.9629H307.988V74.8531H434.665V72.9629Z" fill="#ADA6E2"/>
<path d="M434.665 76.4746H307.988V78.3648H434.665V76.4746Z" fill="#ADA6E2"/>
<path d="M434.665 79.9824H307.988V81.8726H434.665V79.9824Z" fill="#ADA6E2"/>
<path d="M434.665 83.4941H307.988V85.3843H434.665V83.4941Z" fill="#ADA6E2"/>
<path d="M434.665 87.002H307.988V88.8921H434.665V87.002Z" fill="#ADA6E2"/>
<path d="M434.665 90.5117H307.988V92.4019H434.665V90.5117Z" fill="#ADA6E2"/>
<path d="M434.665 94.0234H307.988V95.9136H434.665V94.0234Z" fill="#ADA6E2"/>
<path d="M431.172 140.268H311.338V149.411H431.172V140.268Z" fill="white"/>
<path opacity="0.2" d="M431.172 147.504H311.338V149.413H431.172V147.504Z" fill="#9C9B9B"/>
<path opacity="0.2" d="M421.274 138.359H321.133V140.268H421.274V138.359Z" fill="#9C9B9B"/>
<path d="M393.23 153.084H390.491V176.607H393.23V153.084Z" fill="#353042"/>
<path d="M367.86 153.084H365.121V176.607H367.86V153.084Z" fill="#353042"/>
<path d="M403.33 135.453V161.118C403.33 163.421 401.469 165.288 399.172 165.288H359.179C356.883 165.288 355.021 163.421 355.021 161.118V135.453C355.021 135.23 355.038 135.011 355.071 134.799C355.384 132.807 357.105 131.283 359.177 131.283H399.17C401.245 131.283 402.964 132.807 403.276 134.799C403.31 135.011 403.327 135.23 403.327 135.453H403.33Z" fill="#855DDB"/>
<path d="M406.681 178.181C406.681 178.759 406.566 179.31 406.355 179.811C406.143 180.32 405.833 180.776 405.451 181.162C404.69 181.924 403.64 182.395 402.48 182.395H355.872C354.128 182.395 352.632 181.33 351.997 179.811C351.786 179.309 351.671 178.759 351.671 178.181C351.671 177.017 352.141 175.964 352.901 175.2C353.662 174.438 354.712 173.967 355.872 173.967H402.48C404.8 173.967 406.681 175.854 406.681 178.181Z" fill="#855DDB"/>
<path d="M398.089 182.24H360.429V185.089H398.089V182.24Z" fill="#353042"/>
<path d="M400.342 182.254H397.922V211.201H400.342V182.254Z" fill="#353042"/>
<path d="M360.428 182.254H358.008V211.201H360.428V182.254Z" fill="#353042"/>
<path d="M399.63 191.834H360.429V193.415H399.63V191.834Z" fill="#353042"/>
<path opacity="0.2" d="M403.278 134.799H355.072C355.384 132.807 357.105 131.283 359.178 131.283H399.171C401.245 131.283 402.964 132.807 403.277 134.799H403.278Z" fill="white"/>
<path opacity="0.2" d="M406.355 179.812C406.143 180.321 405.833 180.777 405.451 181.163C404.69 181.925 403.64 182.397 402.48 182.397H355.873C354.128 182.397 352.632 181.331 351.997 179.812H406.356H406.355Z" fill="#0A3D22"/>
<path opacity="0.2" d="M436.909 13.3047H305.498V18.6009H436.909V13.3047Z" fill="#D8D3EA"/>
<path opacity="0.2" d="M436.909 20.8711H305.498V22.8496H436.909V20.8711Z" fill="#D8D3EA"/>
<path opacity="0.2" d="M305.498 26.5234H319.135V28.2183H305.498V30.1968H319.135V31.8917H305.498V33.8702H319.135V35.8474H305.498V37.8258H319.135V39.5208H305.498V41.4992H319.135V43.1942H305.498V45.1726H319.135V46.8688H305.498V48.846H319.135V50.5422H305.498V52.5194H319.135V54.2156H305.498V56.1928H319.135V57.7957H305.498V57.889V59.7742V59.8662H319.135V61.4691H305.498V63.4475H319.135V65.1425H305.498V67.1209H319.135V68.8159H305.498V70.7943H319.135V72.7728H305.498V74.75H319.135V76.4462H305.498V78.4234H319.135V80.1196H305.498V82.098H319.135V83.793H305.498V85.7714H319.135V87.4663H305.498V89.4448H319.135V91.1397H305.498V93.1182H319.135V94.8131H305.498V96.7916H319.135V141.219V143.216H308.974V150.788V152.787H433.288V150.788V143.216H423.294V96.7916H436.909V94.8131H423.294V93.1182H436.909V91.1397H423.294V89.4448H436.909V87.4663H423.294V85.7714H436.909V83.793H423.294V82.098H436.909V80.1196H423.294V78.4234H436.909V76.4462H423.294V74.75H436.909V72.7728H423.294V70.7943H436.909V68.8159H423.294V67.1209H436.909V65.1425H423.294V63.4475H436.909V61.4691H423.294V59.8662H436.909V59.7742V57.889V57.7957H423.294V56.1928H436.909V54.2156H423.294V52.5194H436.909V50.5422H423.294V48.846H436.909V46.8688H423.294V45.1726H436.909V43.1942H423.294V41.4992H436.909V39.5208H423.294V37.8258H436.909V35.8474H423.294V33.8702H436.909V31.8917H423.294V30.1968H436.909V28.2183H423.294V26.5234H436.909V24.5449H305.498V26.5234Z" fill="#D8D3EA"/>
<path opacity="0.2" d="M70.0125 213.409C89.0689 213.409 104.517 212.082 104.517 210.446C104.517 208.811 89.0689 207.484 70.0125 207.484C50.9561 207.484 35.5078 208.811 35.5078 210.446C35.5078 212.082 50.9561 213.409 70.0125 213.409Z" fill="#575756"/>
<path opacity="0.2" d="M120.32 224.09C131.903 224.09 141.292 222.764 141.292 221.128C141.292 219.492 131.903 218.166 120.32 218.166C108.738 218.166 99.3486 219.492 99.3486 221.128C99.3486 222.764 108.738 224.09 120.32 224.09Z" fill="#575756"/>
<path opacity="0.2" d="M273.549 231.555C287.09 231.555 298.067 230.229 298.067 228.593C298.067 226.957 287.09 225.631 273.549 225.631C260.009 225.631 249.032 226.957 249.032 228.593C249.032 230.229 260.009 231.555 273.549 231.555Z" fill="#575756"/>
<path opacity="0.2" d="M380.029 214.162C394.569 214.162 406.355 212.836 406.355 211.2C406.355 209.564 394.569 208.238 380.029 208.238C365.49 208.238 353.703 209.564 353.703 211.2C353.703 212.836 365.49 214.162 380.029 214.162Z" fill="#575756"/>
<path opacity="0.2" d="M237.289 223.282C290.307 223.282 333.287 220.992 333.287 218.167C333.287 215.343 290.307 213.053 237.289 213.053C184.272 213.053 141.292 215.343 141.292 218.167C141.292 220.992 184.272 223.282 237.289 223.282Z" fill="#575756"/>
</g>
<defs>
<clipPath id="clip0_1303_12671">
<rect width="491" height="235" fill="white" transform="translate(0.923828 0.126953)"/>
</clipPath>
</defs>
</svg>
