<svg width="15" height="15" viewBox="0 0 15 15" fill="none" xmlns="http://www.w3.org/2000/svg">
<path d="M10.5513 11.125V12.2188C10.5513 13.425 9.56999 14.4062 8.36377 14.4062H2.86768C1.66145 14.4062 0.680176 13.425 0.680176 12.2188V2.59375C0.680176 1.38753 1.66145 0.40625 2.86768 0.40625H8.36377C9.56999 0.40625 10.5513 1.38753 10.5513 2.59375V3.6875C10.5513 3.98956 10.3065 4.23438 10.0044 4.23438C9.70233 4.23438 9.45752 3.98956 9.45752 3.6875V2.59375C9.45752 1.99069 8.96683 1.5 8.36377 1.5H2.86768C2.26462 1.5 1.77393 1.99069 1.77393 2.59375V12.2188C1.77393 12.8218 2.26462 13.3125 2.86768 13.3125H8.36377C8.96683 13.3125 9.45752 12.8218 9.45752 12.2188V11.125C9.45752 10.8229 9.70233 10.5781 10.0044 10.5781C10.3065 10.5781 10.5513 10.8229 10.5513 11.125ZM14.2797 6.46684L13.0551 5.24225C12.8415 5.02863 12.4952 5.02863 12.2817 5.24225C12.0681 5.45576 12.0681 5.80205 12.2817 6.01556L13.1528 6.88672H6.58643C6.28436 6.88672 6.03955 7.13153 6.03955 7.43359C6.03955 7.73566 6.28436 7.98047 6.58643 7.98047H13.1528L12.2817 8.85162C12.0681 9.06514 12.0681 9.41142 12.2817 9.62494C12.3885 9.73175 12.5285 9.78516 12.6684 9.78516C12.8084 9.78516 12.9483 9.73175 13.0551 9.62494L14.2797 8.40034C14.8128 7.86725 14.8128 6.99994 14.2797 6.46684Z" fill="#0F123F"/>
</svg>
