<svg width="48" height="48" viewBox="0 0 48 48" fill="none" xmlns="http://www.w3.org/2000/svg">
<circle cx="24.1682" cy="24.4062" r="22.75" fill="#F1F2F9" stroke="#DFE0EB" stroke-width="1.5"/>
<mask id="mask0_1303_13023" style="mask-type:alpha" maskUnits="userSpaceOnUse" x="2" y="2" width="45" height="45">
<circle cx="24.1682" cy="24.4062" r="22" fill="#F1F2F9"/>
</mask>
<g mask="url(#mask0_1303_13023)">
<path d="M42.0839 48.4063C42.25 43.9199 39.4244 42.1944 39.4244 42.1944L27.5201 35.4648H20.7384L8.83483 42.1944C8.83483 42.1944 6.00919 43.9199 6.17526 48.4063H42.0839Z" fill="#F9C5B8"/>
<path d="M19.8918 36.3343H28.3676C26.4897 35.3202 26.9958 31.4219 26.9958 31.4219H21.2637C21.2636 31.4219 21.7698 35.3202 19.8918 36.3343Z" fill="#F9C5B8"/>
<path d="M21.1462 34.3526C23.1712 34.1214 25.1532 33.4427 26.9347 32.4393C26.9415 31.8408 26.9957 31.4219 26.9957 31.4219H21.2636C21.2636 31.4218 21.4624 32.958 21.1462 34.3526Z" fill="#F5A997"/>
<path d="M34.0165 22.7371C33.8381 24.1159 33.058 25.1399 32.2739 25.0241C31.4897 24.9081 30.9987 23.6963 31.1769 22.3174C31.3553 20.9385 32.1357 19.9145 32.9198 20.0304C33.7039 20.1463 34.195 21.3581 34.0165 22.7371Z" fill="#F5A997"/>
<path d="M32.2622 24.0006C32.1559 24.0006 32.0593 23.9284 32.0325 23.8205C31.8371 23.0292 31.7484 22.0916 32.5716 21.1368C32.6569 21.0379 32.8064 21.0267 32.9054 21.1121C33.0043 21.1975 33.0154 21.3469 32.93 21.446C32.2154 22.2748 32.3292 23.0478 32.492 23.7071C32.5234 23.834 32.446 23.9623 32.3189 23.9936C32.3 23.9983 32.281 24.0006 32.2622 24.0006Z" fill="#E9837B"/>
<path d="M33.0579 22.6272C33.0432 22.6272 33.0283 22.6258 33.0133 22.623C32.6336 22.5511 32.2421 22.6225 32.238 22.623C32.1091 22.6465 31.9862 22.5623 31.9619 22.4342C31.9377 22.3058 32.0219 22.1822 32.1501 22.1578C32.1693 22.154 32.631 22.0683 33.1018 22.1578C33.2302 22.1822 33.3144 22.3061 33.2902 22.4345C33.2686 22.5481 33.1694 22.6272 33.0579 22.6272Z" fill="#E9837B"/>
<path d="M14.2437 22.7371C14.4221 24.1159 15.2022 25.1399 15.9863 25.0241C16.7704 24.9081 17.2614 23.6963 17.0832 22.3174C16.9048 20.9385 16.1244 19.9145 15.3404 20.0304C14.5562 20.1463 14.0652 21.3581 14.2437 22.7371Z" fill="#F5A997"/>
<path d="M15.9974 24.0008C15.9785 24.0008 15.9595 23.9986 15.9405 23.9937C15.8135 23.9624 15.736 23.8341 15.7674 23.7072C15.9302 23.0477 16.044 22.2749 15.3294 21.4461C15.244 21.347 15.2551 21.1975 15.354 21.1121C15.4531 21.0267 15.6027 21.0379 15.6878 21.1368C16.511 22.0916 16.4223 23.0292 16.2269 23.8206C16.2002 23.9285 16.1037 24.0008 15.9974 24.0008Z" fill="#E9837B"/>
<path d="M15.2018 22.6271C15.0903 22.6271 14.9911 22.548 14.9695 22.4345C14.9452 22.306 15.0295 22.1821 15.1579 22.1578C15.6287 22.0684 16.0902 22.154 16.1096 22.1578C16.238 22.1822 16.3223 22.3061 16.298 22.4345C16.2736 22.5629 16.1485 22.6466 16.0215 22.6229C16.0147 22.6218 15.625 22.5511 15.2463 22.6229C15.2313 22.6257 15.2164 22.6271 15.2018 22.6271Z" fill="#E9837B"/>
<path d="M32.0712 19.433C31.9307 15.4992 29.5162 10.6395 24.5658 10.6661H24.06H23.5539C18.6035 10.6395 16.1893 15.4992 16.0484 19.433C15.9072 23.387 17.1194 27.947 19.582 30.3722C20.7365 31.509 22.4877 32.0558 24.0599 32.0831C25.6318 32.0558 27.383 31.509 28.5376 30.3722C31.0002 27.947 32.2124 23.387 32.0712 19.433Z" fill="#F9C5B8"/>
<path d="M22.4421 23.3645C22.4421 23.8459 21.5828 24.2364 20.5226 24.2364C19.4627 24.2364 18.603 23.8459 18.603 23.3645C18.603 22.8827 19.4627 22.4922 20.5226 22.4922C21.5828 22.4922 22.4421 22.8827 22.4421 23.3645Z" fill="#F6AFA8"/>
<path d="M29.5174 23.3645C29.5174 23.8459 28.6581 24.2364 27.5979 24.2364C26.5379 24.2364 25.6782 23.8459 25.6782 23.3645C25.6782 22.8827 26.5379 22.4922 27.5979 22.4922C28.6581 22.4922 29.5174 22.8827 29.5174 23.3645Z" fill="#F6AFA8"/>
<path d="M30.0707 9.83368C30.0707 9.83368 27.4497 8.36093 24.0773 8.40732C20.7046 8.36093 18.0839 9.83368 18.0839 9.83368C13.9415 12.9109 15.1608 20.0455 15.1608 20.0455C16.283 20.1271 15.621 22.1237 16.3733 23.3995C16.9429 22.1756 16.7068 19.3552 16.7068 19.3552C16.8174 18.6832 17.2467 18.1137 17.5279 17.5094C17.8166 16.8885 17.5402 17.5151 17.8166 16.8885C18.1517 16.1284 18.3267 14.6674 18.6374 13.897C20.8817 13.4901 22.6645 13.3265 24.0773 13.3092C25.4902 13.3265 27.2728 13.4901 29.5172 13.897C29.8276 14.6674 30.0029 16.1284 30.3379 16.8885C30.6144 17.5151 30.3379 16.8885 30.6267 17.5094C30.9079 18.1137 31.3368 18.6832 31.4475 19.3552C31.4475 19.3552 31.2117 22.1755 31.7812 23.3995C32.5336 22.1238 31.8716 20.1272 32.9937 20.0455C32.9936 20.0455 34.213 12.9109 30.0707 9.83368Z" fill="#5C2D6D"/>
<path d="M21.5403 22.0567C21.4096 22.0567 21.3035 21.9508 21.3035 21.82C21.3035 21.3575 21.0916 20.9988 20.9093 20.9988C20.7269 20.9988 20.5148 21.3575 20.5148 21.82C20.5148 21.9507 20.4088 22.0567 20.2781 22.0567C20.1474 22.0567 20.0413 21.9508 20.0413 21.82C20.0413 21.0941 20.4225 20.5254 20.9092 20.5254C21.3957 20.5254 21.7768 21.0941 21.7768 21.82C21.777 21.9508 21.671 22.0567 21.5403 22.0567Z" fill="#2A2D6B"/>
<path d="M27.8424 22.0567C27.7118 22.0567 27.6057 21.9508 27.6057 21.82C27.6057 21.3575 27.3937 20.9988 27.2112 20.9988C27.0289 20.9988 26.817 21.3575 26.817 21.82C26.817 21.9507 26.711 22.0567 26.5802 22.0567C26.4496 22.0567 26.3435 21.9508 26.3435 21.82C26.3435 21.0941 26.7246 20.5254 27.2112 20.5254C27.6978 20.5254 28.0791 21.0941 28.0791 21.82C28.0792 21.9508 27.9732 22.0567 27.8424 22.0567Z" fill="#2A2D6B"/>
<path d="M30.868 37.3574L39.4245 42.1945C39.4245 42.1945 42.2501 43.92 42.084 48.4065H6.17526C6.00919 43.92 8.83483 42.1945 8.83483 42.1945L17.391 37.3574L23.5435 41.9357L30.868 37.3574Z" fill="#3F5AA6"/>
<path d="M21.9746 19.4735C21.9515 19.6986 21.7737 19.8494 21.5777 19.8306C20.8578 19.7604 20.1421 19.879 19.4834 20.1779C19.3038 20.259 19.0868 20.1737 18.9922 19.9681C18.8976 19.7631 18.9857 19.501 19.1972 19.4053C19.9525 19.0624 20.7733 18.9263 21.5989 19.007C21.8297 19.0294 21.9981 19.249 21.9746 19.4735Z" fill="#2A2E6D"/>
<path d="M26.1454 19.4735C26.1689 19.6986 26.3467 19.8494 26.5427 19.8306C27.2627 19.7604 27.9783 19.879 28.637 20.1779C28.8167 20.259 29.0333 20.1737 29.1282 19.9681C29.2229 19.763 29.1344 19.501 28.9233 19.4053C28.1679 19.0624 27.3468 18.9263 26.5211 19.007C26.2906 19.0294 26.1223 19.249 26.1454 19.4735Z" fill="#2A2E6D"/>
<path d="M23.8801 25.617C23.8502 25.617 23.8197 25.6112 23.7902 25.5991C23.2811 25.3896 23.0038 25.1544 22.918 24.8586C22.8048 24.4684 23.0531 24.1167 23.3164 23.7444C23.4811 23.5113 23.6514 23.2703 23.7343 23.0181C23.775 22.8941 23.9091 22.8269 24.0329 22.8672C24.1571 22.908 24.2249 23.0418 24.184 23.166C24.0791 23.4856 23.8793 23.7683 23.703 24.0176C23.5075 24.2942 23.323 24.5555 23.3726 24.7266C23.4011 24.8244 23.5279 24.9792 23.9702 25.1613C24.0912 25.211 24.1488 25.3493 24.0991 25.4702C24.0615 25.5617 23.9732 25.617 23.8801 25.617Z" fill="#E9837B"/>
<path d="M30.5545 24.9222C30.3225 25.7584 29.8158 27.243 28.6612 26.9403C28.3508 26.8589 28.087 26.6135 27.85 26.4103C27.441 26.06 27.0759 25.7678 26.537 25.6567C25.9789 25.5417 25.3881 25.5853 24.8234 25.6123C24.6051 25.6227 24.3696 25.6478 24.1296 25.673V25.6704H23.9167C23.6765 25.6451 23.441 25.6201 23.2228 25.6097C22.6583 25.5828 22.0673 25.5392 21.5092 25.6542C20.9705 25.7653 20.6052 26.0574 20.1962 26.4077C19.9591 26.611 19.6953 26.8564 19.3851 26.9378C18.2304 27.2404 17.7238 25.7559 17.4917 24.9196C17.2784 24.1517 17.0987 23.0435 16.1609 22.7715C16.5921 25.7308 17.7198 30.2727 19.5058 32.0317C20.6441 33.1524 22.3617 33.6986 23.9167 33.7401V33.7426H24.1296C25.6845 33.7012 27.4021 33.155 28.5404 32.0342C30.3264 30.2753 31.4542 25.7334 31.8853 22.774C30.9475 23.046 30.7678 24.1543 30.5545 24.9222Z" fill="#5C2D6D"/>
<path d="M21.4885 27.332C21.8488 28.4077 22.8631 29.1838 24.0602 29.1838C25.2572 29.1838 26.2713 28.4078 26.6316 27.332H21.4885Z" fill="white"/>
</g>
</svg>
