<svg width="15" height="15" viewBox="0 0 15 15" fill="none" xmlns="http://www.w3.org/2000/svg">
<path d="M11.986 10.1163C11.8838 10.0141 11.8698 9.83767 11.9482 9.71587C12.5642 8.76807 12.9254 7.63967 12.9254 6.42727C12.9254 3.07847 10.201 0.355469 6.855 0.355469C3.5062 0.355469 0.783203 3.07847 0.783203 6.42727C0.783203 9.77467 3.5062 12.4977 6.855 12.4977C8.1584 12.4977 9.3652 12.0791 10.3564 11.3763C10.4726 11.2923 10.6476 11.3035 10.7498 11.4043L12.9198 13.5743C12.9338 13.5883 12.9492 13.6023 12.9646 13.6135C12.9898 13.6345 13.0948 13.7325 13.1956 13.8347L13.4532 14.0909C13.5554 14.1917 13.7206 14.1917 13.8214 14.0909L14.7062 13.2061C14.8084 13.1039 14.8084 12.9387 14.7076 12.8365L11.986 10.1163ZM10.5272 9.25527C10.327 9.51567 10.1016 9.75367 9.8524 9.96507C9.0432 10.6525 7.9974 11.0697 6.855 11.0697C4.2944 11.0697 2.2112 8.98647 2.2112 6.42727C2.2112 3.86807 4.2944 1.78347 6.855 1.78347C9.4142 1.78347 11.4974 3.86667 11.4974 6.42727C11.4974 7.49127 11.132 8.47127 10.5272 9.25527Z" fill="#855DD9"/>
</svg>
