<svg width="21" height="14" viewBox="0 0 21 14" fill="none" xmlns="http://www.w3.org/2000/svg">
<path d="M20.5308 6.61382C20.3531 6.37067 16.118 0.660156 10.7089 0.660156C5.29989 0.660156 1.06455 6.37067 0.887 6.61359C0.718656 6.84427 0.718656 7.15713 0.887 7.38781C1.06455 7.63096 5.29989 13.3415 10.7089 13.3415C16.118 13.3415 20.3531 7.63092 20.5308 7.388C20.6994 7.15737 20.6994 6.84427 20.5308 6.61382ZM10.7089 12.0296C6.72459 12.0296 3.27374 8.23944 2.25221 7.00037C3.27242 5.76021 6.71604 1.97201 10.7089 1.97201C14.6931 1.97201 18.1437 5.76153 19.1656 7.00126C18.1454 8.24138 14.7018 12.0296 10.7089 12.0296Z" fill="#C8C6CE"/>
<path d="M10.7088 3.06445C8.53874 3.06445 6.77319 4.83 6.77319 7.00005C6.77319 9.1701 8.53874 10.9357 10.7088 10.9357C12.8788 10.9357 14.6444 9.1701 14.6444 7.00005C14.6444 4.83 12.8788 3.06445 10.7088 3.06445ZM10.7088 9.62376C9.26201 9.62376 8.08509 8.44679 8.08509 7.00005C8.08509 5.55331 9.26205 4.37635 10.7088 4.37635C12.1555 4.37635 13.3325 5.55331 13.3325 7.00005C13.3325 8.44679 12.1556 9.62376 10.7088 9.62376Z" fill="#C8C6CE"/>
</svg>
